<svg xml:space="preserve" viewBox="184.32 198.656 671.744 604.16" y="0px" x="0px" xmlns:xlink="http://www.w3.org/1999/xlink" xmlns="http://www.w3.org/2000/svg" id="Layer_1" version="1.1" style="max-height: 500px" width="60" height="60">
<path d="M669.000000,1025.000000 &#10;&#9;C446.000000,1025.000000 223.500000,1025.000000 1.000000,1025.000000 &#10;&#9;C1.000000,683.666687 1.000000,342.333344 1.000000,1.000000 &#10;&#9;C342.333344,1.000000 683.666687,1.000000 1025.000000,1.000000 &#10;&#9;C1025.000000,342.333344 1025.000000,683.666687 1025.000000,1025.000000 &#10;&#9;C906.500000,1025.000000 788.000000,1025.000000 669.000000,1025.000000 &#10;M319.340027,408.570251 &#10;&#9;C319.149109,404.056702 318.958221,399.543182 318.474823,394.364868 &#10;&#9;C318.571716,393.900879 318.668579,393.436859 319.340607,392.668488 &#10;&#9;C320.348511,390.048798 325.885895,392.302612 325.248871,387.050690 &#10;&#9;C326.091736,386.544067 326.934601,386.037445 328.118286,386.214386 &#10;&#9;C329.976776,386.423798 331.835297,386.633240 334.336273,386.925537 &#10;&#9;C348.654755,394.567169 362.928467,402.295593 377.353607,409.730286 &#10;&#9;C378.984619,410.570953 381.813019,410.444885 383.502930,409.600220 &#10;&#9;C397.131378,402.788300 410.620026,395.696777 424.632568,389.161438 &#10;&#9;C428.750916,392.364655 432.869263,395.567871 436.848755,399.739075 &#10;&#9;C436.727997,413.302307 436.640106,426.866058 436.421844,440.427734 &#10;&#9;C436.405029,441.470734 435.469055,442.498932 433.022278,444.823273 &#10;&#9;C432.323273,445.160034 431.624268,445.496765 430.926208,445.738861 &#10;&#9;C430.926208,445.738861 431.099976,445.636475 430.566345,446.241852 &#10;&#9;C429.955048,446.800049 429.381134,447.406952 428.726746,447.908966 &#10;&#9;C421.622742,453.358582 422.936279,463.367493 427.481659,468.234283 &#10;&#9;C432.391327,473.491058 442.104584,473.412964 446.814362,467.205444 &#10;&#9;C449.261505,463.980072 449.456696,459.046051 451.377838,454.669983 &#10;&#9;C465.153839,447.687744 478.903534,440.652588 492.731689,433.775208 &#10;&#9;C495.033020,432.630676 497.675873,432.172821 500.354919,431.783386 &#10;&#9;C500.354919,431.783386 500.737396,431.983765 500.650940,432.228577 &#10;&#9;C500.708496,432.428802 500.840881,432.518097 501.333893,433.155365 &#10;&#9;C504.576599,435.432922 507.819336,437.710480 510.920166,440.917267 &#10;&#9;C510.935028,447.546356 510.891083,454.176208 510.981720,460.804260 &#10;&#9;C511.067932,467.108429 510.640198,473.463837 511.208435,479.734131 &#10;&#9;C511.787750,479.701111 512.367065,479.668091 512.946350,479.635071 &#10;&#9;C512.946350,466.419250 512.946350,453.203400 513.245422,439.310516 &#10;&#9;C517.769592,436.584595 522.293701,433.858673 527.238037,431.674561 &#10;&#9;C541.371521,438.826630 555.504944,445.978668 570.134399,453.797089 &#10;&#9;C570.415649,455.504272 570.815979,457.201691 570.957153,458.920349 &#10;&#9;C571.510498,465.657623 576.677307,471.284393 583.098511,472.034821 &#10;&#9;C589.998413,472.841248 595.813965,469.208344 597.764465,462.873322 &#10;&#9;C599.803467,456.250824 596.911682,449.207153 590.783386,445.963898 &#10;&#9;C589.183472,445.117188 587.524353,444.382538 586.547180,442.869141 &#10;&#9;C586.687012,442.574432 586.826904,442.279755 587.259766,441.778839 &#10;&#9;C587.139771,441.519135 587.019775,441.259430 586.664368,440.087860 &#10;&#9;C586.736816,429.064697 586.809265,418.041504 587.442749,406.513428 &#10;&#9;C587.194824,404.705841 586.946899,402.898254 586.274963,400.584137 &#10;&#9;C586.088501,399.723785 585.902100,398.863403 586.386353,397.693573 &#10;&#9;C591.255798,396.022156 595.038391,393.091583 597.963318,388.515411 &#10;&#9;C612.125671,395.501587 626.351746,402.363861 640.397522,409.577026 &#10;&#9;C643.255249,411.044586 645.269348,410.644287 647.758972,409.303223 &#10;&#9;C662.256958,401.494019 676.777283,393.725128 691.360413,386.076904 &#10;&#9;C692.569580,385.442749 694.498474,385.304413 695.751465,385.799713 &#10;&#9;C699.120117,387.131287 702.303650,388.931091 706.090088,390.807373 &#10;&#9;C706.090088,416.149872 706.090088,441.926910 706.090088,467.907501 &#10;&#9;C708.294739,467.907501 710.054443,467.907501 712.068542,467.907501 &#10;&#9;C712.068542,441.889923 712.068542,416.105804 712.068542,390.128784 &#10;&#9;C719.125183,387.659637 724.699951,383.584930 726.938049,376.303772 &#10;&#9;C729.494507,367.986847 727.100952,360.676178 720.871094,354.965057 &#10;&#9;C714.947571,349.534790 707.961060,348.625122 700.415100,351.836121 &#10;&#9;C698.237671,352.762634 696.454712,354.636658 693.194092,352.812775 &#10;&#9;C673.156677,341.604431 652.927063,330.737152 632.694702,319.880585 &#10;&#9;C600.606689,302.662384 568.466248,285.541779 536.263977,268.334991 &#10;&#9;C536.263977,267.796875 536.186340,267.301758 536.275452,266.838745 &#10;&#9;C538.244202,256.607727 534.098267,248.861908 526.016846,243.156708 &#10;&#9;C518.078308,237.552414 509.458130,237.377548 501.034119,242.083817 &#10;&#9;C492.470276,246.868210 487.971283,254.401520 488.505493,264.271851 &#10;&#9;C488.679260,267.482300 487.894592,268.886688 485.167816,270.342346 &#10;&#9;C433.945831,297.686005 382.771820,325.119598 331.633636,352.619720 &#10;&#9;C329.328278,353.859467 327.744171,353.905426 325.336029,352.655090 &#10;&#9;C315.396667,347.494507 304.943542,349.955627 299.381897,358.755676 &#10;&#9;C294.010010,367.255493 295.459595,375.530334 301.423309,384.076965 &#10;&#9;C301.840942,384.354370 302.258545,384.631775 302.949280,384.874542 &#10;&#9;C303.149200,384.964417 303.225067,385.116211 303.217590,386.197693 &#10;&#9;C304.390778,386.772491 305.563995,387.347321 306.714478,387.998505 &#10;&#9;C306.714478,387.998505 306.785919,388.033752 306.415955,388.680878 &#10;&#9;C312.003601,392.490417 311.020782,398.276581 311.008179,403.801147 &#10;&#9;C310.977814,417.130188 310.960236,430.459503 311.041382,443.788116 &#10;&#9;C311.051971,445.526367 311.673798,447.260956 312.237549,449.467133 &#10;&#9;C312.338989,449.971252 312.440460,450.475342 312.331116,451.767242 &#10;&#9;C312.222992,456.177917 312.114868,460.588593 311.352814,465.079468 &#10;&#9;C308.976257,465.858002 308.842316,467.362854 310.710144,468.585571 &#10;&#9;C312.877258,470.004181 315.384888,470.902588 317.771942,472.039764 &#10;&#9;C318.777496,469.678528 320.288422,467.769073 320.295837,465.853851 &#10;&#9;C320.354706,450.562897 320.168121,435.270264 319.933838,419.980011 &#10;&#9;C319.908447,418.322449 319.102539,416.676819 318.371429,414.379639 &#10;&#9;C318.272369,413.921753 318.173309,413.463867 318.266205,412.265076 &#10;&#9;C318.203644,411.507965 318.141083,410.750824 318.363403,409.453125 &#10;&#9;C318.488495,409.292358 318.613556,409.131592 319.340027,408.570251 &#10;M412.290222,494.584534 &#10;&#9;C412.290222,494.584534 412.116119,494.143250 411.624481,493.594208 &#10;&#9;C410.001831,493.399384 408.379974,493.043640 406.756409,493.035797 &#10;&#9;C396.097748,492.984222 385.432159,493.236633 374.782074,492.929352 &#10;&#9;C367.216034,492.711060 359.661316,491.865570 352.120941,491.107178 &#10;&#9;C349.071442,490.800446 345.923035,493.168396 345.910126,496.279419 &#10;&#9;C345.903198,497.943085 346.000275,499.607025 346.003235,501.270935 &#10;&#9;C346.024048,513.011353 346.020081,513.010803 357.544159,512.017822 &#10;&#9;C357.875275,511.989258 358.209869,511.992523 358.542786,511.993713 &#10;&#9;C371.716675,512.040649 370.055450,510.817688 369.962646,522.915344 &#10;&#9;C369.858124,536.534973 369.302979,550.151245 369.220062,563.770691 &#10;&#9;C369.211609,565.161987 371.093597,566.564941 372.563263,567.892029 &#10;&#9;C372.563263,567.892029 373.004395,568.054810 373.604462,568.554749 &#10;&#9;C376.400055,568.401245 379.195648,568.247742 382.653870,567.936951 &#10;&#9;C383.101593,567.990295 383.549347,568.043640 384.101593,568.752319 &#10;&#9;C385.211426,569.179016 386.450745,570.157837 387.407928,569.933411 &#10;&#9;C390.886444,569.117798 391.605865,566.256042 391.304626,563.195251 &#10;&#9;C391.226379,562.400208 389.942200,561.723816 389.032043,560.071899 &#10;&#9;C389.095795,549.716797 389.159546,539.361755 389.952179,528.734802 &#10;&#9;C390.299072,525.530334 390.867371,522.331360 390.946869,519.120239 &#10;&#9;C391.113464,512.395325 391.355499,511.909332 397.988525,512.030579 &#10;&#9;C403.358185,512.128662 408.721191,512.592590 413.992065,512.888916 &#10;&#9;C413.992065,509.149200 414.162292,505.991821 413.940125,502.862335 &#10;&#9;C413.749786,500.181702 413.110016,497.532990 412.290222,494.584534 &#10;M698.996399,615.100403 &#10;&#9;C694.418518,609.387939 689.333740,603.998718 685.420288,597.862488 &#10;&#9;C682.183899,592.787903 678.364929,592.866943 673.823975,593.848999 &#10;&#9;C673.823975,607.801819 673.823975,621.417358 673.823975,635.127625 &#10;&#9;C677.064209,635.127625 679.921143,635.127625 683.232056,635.127625 &#10;&#9;C683.232056,627.007690 683.232056,619.301331 683.232056,611.595032 &#10;&#9;C689.335754,617.868713 694.660339,624.398865 699.387939,631.335815 &#10;&#9;C702.301758,635.611267 705.774414,636.547668 710.442749,635.399292 &#10;&#9;C710.442749,621.452454 710.442749,607.598389 710.442749,593.757935 &#10;&#9;C707.101440,593.757935 704.175171,593.757935 700.731689,593.757935 &#10;&#9;C700.731689,600.903442 700.731689,607.721680 700.108337,614.990173 &#10;&#9;C699.918091,615.161987 699.727783,615.333740 698.996399,615.100403 &#10;M610.982361,538.329773 &#10;&#9;C614.415833,537.631775 614.751282,539.583862 614.714172,542.332153 &#10;&#9;C614.600586,550.744934 614.672852,559.160217 614.672852,567.433838 &#10;&#9;C621.170654,567.433838 626.897583,567.433838 632.478638,567.433838 &#10;&#9;C632.478638,542.782593 632.478638,518.583984 632.478638,494.343445 &#10;&#9;C626.337280,494.343445 620.593262,494.343445 614.234375,494.343445 &#10;&#9;C614.234375,503.663422 614.234375,512.703735 614.234375,521.504517 &#10;&#9;C604.387634,521.504517 595.163330,521.504517 585.590698,521.504517 &#10;&#9;C585.590698,512.375244 585.590698,503.610291 585.590698,494.521729 &#10;&#9;C579.665771,494.521729 574.098572,494.521729 568.214233,494.521729 &#10;&#9;C568.214233,518.848572 568.214233,543.042175 568.214233,567.842224 &#10;&#9;C573.210327,567.842224 577.997009,567.950989 582.771484,567.758789 &#10;&#9;C583.841675,567.715759 584.869507,566.619324 586.466736,565.545044 &#10;&#9;C586.309814,558.364807 586.152893,551.184509 585.767090,543.271484 &#10;&#9;C585.837158,542.517273 585.907166,541.763000 586.808350,540.889038 &#10;&#9;C593.570801,540.608276 600.336243,540.378357 607.092590,539.991211 &#10;&#9;C608.094971,539.933838 609.054871,539.135132 610.982361,538.329773 &#10;M754.261536,563.815491 &#10;&#9;C754.545898,565.566345 753.472534,568.039185 756.915039,567.936768 &#10;&#9;C761.847839,567.789978 766.788269,567.899353 772.162964,567.899353 &#10;&#9;C772.162964,553.704590 772.162964,540.029480 772.162964,525.030762 &#10;&#9;C774.316956,527.660156 775.699890,529.230896 776.954285,530.898315 &#10;&#9;C785.450562,542.191833 793.892578,553.526306 802.436401,564.783569 &#10;&#9;C803.364319,566.006226 804.770447,567.586670 806.056946,567.686707 &#10;&#9;C810.616699,568.040833 815.220764,567.824768 819.691528,567.824768 &#10;&#9;C819.691528,542.928040 819.691528,518.581970 819.691528,494.269409 &#10;&#9;C813.792542,494.269409 808.346619,494.269409 802.350464,494.269409 &#10;&#9;C802.350464,501.241089 802.350525,508.017670 802.350525,514.794250 &#10;&#9;C802.350525,521.481689 802.350464,528.169128 802.350464,536.242004 &#10;&#9;C800.297913,533.659851 799.181213,532.298035 798.110352,530.901001 &#10;&#9;C789.512329,519.684448 780.950134,508.440216 772.292480,497.269928 &#10;&#9;C771.332703,496.031586 769.866699,494.370422 768.594971,494.334412 &#10;&#9;C763.835327,494.199554 759.058838,494.658661 753.631226,495.460144 &#10;&#9;C753.420715,496.415741 753.028259,497.371033 753.026611,498.326996 &#10;&#9;C752.991516,518.649475 752.982788,538.972046 753.043884,559.294373 &#10;&#9;C753.047607,560.532837 753.672729,561.769531 754.261536,563.815491 &#10;M517.049927,736.390930 &#10;&#9;C517.036743,729.295837 517.115601,722.198730 516.963562,715.106567 &#10;&#9;C516.905396,712.393311 516.319092,709.691345 515.924744,706.249878 &#10;&#9;C519.890198,703.164734 525.198242,701.379395 526.816467,694.876282 &#10;&#9;C526.784485,693.250854 526.752441,691.625488 526.828979,689.328735 &#10;&#9;C527.477722,688.765930 528.126465,688.203125 529.446350,687.467468 &#10;&#9;C544.233948,680.094177 559.021545,672.720886 573.809143,665.347595 &#10;&#9;C573.532776,664.796387 573.256409,664.245178 572.980103,663.693970 &#10;&#9;C557.960266,670.881165 542.940491,678.068359 527.223633,685.495178 &#10;&#9;C525.985779,684.747681 524.521484,684.220459 523.545898,683.217834 &#10;&#9;C515.910278,675.370178 507.842682,675.697937 501.072174,684.204895 &#10;&#9;C500.488647,684.938110 499.681458,685.493286 498.467529,685.672791 &#10;&#9;C483.465851,678.283630 468.464142,670.894470 453.462463,663.505310 &#10;&#9;C453.148468,664.136414 452.834503,664.767517 452.520508,665.398682 &#10;&#9;C467.983856,672.970459 483.447205,680.542297 498.960510,688.846069 &#10;&#9;C497.883026,696.169067 500.651398,701.444885 507.228851,704.884583 &#10;&#9;C508.137787,705.359985 509.058105,706.816650 509.076294,707.835083 &#10;&#9;C509.237030,716.829529 509.253052,725.828491 509.132660,734.823608 &#10;&#9;C509.118927,735.849182 508.249176,737.236694 507.359406,737.815979 &#10;&#9;C501.907501,741.364990 496.335388,744.729370 489.792847,748.781006 &#10;&#9;C434.405121,720.152222 377.454559,690.715576 320.175171,661.109009 &#10;&#9;C319.114441,663.656494 318.437317,665.282715 317.700745,667.051636 &#10;&#9;C319.169037,667.875488 320.298798,668.551208 321.464630,669.157471 &#10;&#9;C375.784729,697.406738 430.092163,725.680542 484.470886,753.816467 &#10;&#9;C487.664154,755.468628 488.996674,757.091614 488.933289,760.894226 &#10;&#9;C488.703156,774.697083 498.030670,785.071045 510.882202,785.936279 &#10;&#9;C523.912659,786.813599 535.572388,777.521057 536.251099,763.870056 &#10;&#9;C536.579224,757.270874 539.329895,755.346985 544.374146,752.768433 &#10;&#9;C592.672913,728.078125 640.811401,703.074036 688.979370,678.128235 &#10;&#9;C696.173096,674.402649 703.281250,670.511902 710.758911,666.521484 &#10;&#9;C709.552124,664.468384 708.667908,662.964050 707.639099,661.213623 &#10;&#9;C649.745239,690.835449 592.194336,720.281860 536.370178,748.844727 &#10;&#9;C529.120483,744.540100 523.094238,740.961853 517.049927,736.390930 &#10;M209.095535,527.500000 &#10;&#9;C209.095535,540.892944 209.095535,554.285889 209.095535,567.829895 &#10;&#9;C220.575943,567.829895 231.238327,568.244324 241.857132,567.740540 &#10;&#9;C261.712738,566.798401 275.667267,553.228516 277.361298,533.898010 &#10;&#9;C279.017334,515.000427 267.860657,499.165924 248.385025,495.780640 &#10;&#9;C235.622482,493.562256 222.369644,494.164581 209.094131,493.491302 &#10;&#9;C209.094131,505.250732 209.094131,515.875366 209.095535,527.500000 &#10;M501.893646,529.693298 &#10;&#9;C502.811890,519.018005 507.575165,512.664246 516.324829,510.443542 &#10;&#9;C525.189880,508.193542 532.725708,511.502655 538.305969,520.018433 &#10;&#9;C538.791504,520.759338 539.639038,521.764221 540.341064,521.782593 &#10;&#9;C545.890625,521.927917 551.445740,521.863342 557.260010,521.863342 &#10;&#9;C552.886780,502.167084 534.704407,490.176636 515.724365,493.276489 &#10;&#9;C494.676849,496.713959 481.045349,514.322876 483.134216,535.375854 &#10;&#9;C485.087860,555.065796 502.927124,570.145264 523.343445,569.364502 &#10;&#9;C539.916931,568.730713 556.699890,554.843323 556.930237,541.272461 &#10;&#9;C551.982422,541.049805 547.019409,540.714905 542.055176,540.695312 &#10;&#9;C541.038818,540.691345 539.681519,541.634155 539.051270,542.538025 &#10;&#9;C533.053467,551.140259 524.846680,554.021729 514.697693,550.924805 &#10;&#9;C506.443512,548.406067 501.905060,541.199280 501.893646,529.693298 &#10;M418.037689,533.388916 &#10;&#9;C413.545532,544.699036 409.053345,556.009155 404.410706,567.698120 &#10;&#9;C410.184937,567.698120 415.178131,567.892883 420.138214,567.573425 &#10;&#9;C421.534149,567.483459 423.843628,566.046997 424.019562,564.952576 &#10;&#9;C425.750763,554.183228 432.512543,551.673706 442.106201,553.295898 &#10;&#9;C443.239502,553.487610 444.433136,553.324646 445.598785,553.322937 &#10;&#9;C457.188416,553.306274 457.108093,553.339355 461.515198,563.987854 &#10;&#9;C462.155396,565.534668 463.914062,567.587219 465.286316,567.692261 &#10;&#9;C470.821228,568.115906 476.407562,567.867859 482.485382,567.867859 &#10;&#9;C481.807892,565.808899 481.443329,564.380188 480.879425,563.035156 &#10;&#9;C473.037231,544.329407 465.203857,525.619873 457.292694,506.943268 &#10;&#9;C451.619751,493.550659 451.565369,493.494110 436.935944,494.246246 &#10;&#9;C435.457184,494.322235 433.312897,495.741364 432.748444,497.075073 &#10;&#9;C427.759186,508.864410 423.057373,520.775391 418.037689,533.388916 &#10;M671.552612,553.304321 &#10;&#9;C674.048523,553.346558 676.608093,553.768921 679.028870,553.363037 &#10;&#9;C687.902161,551.874878 693.556091,554.701416 695.192688,564.132751 &#10;&#9;C695.425903,565.476807 697.329224,567.454651 698.570312,567.540588 &#10;&#9;C703.991577,567.916199 709.453613,567.702148 715.606995,567.702148 &#10;&#9;C714.753845,565.443542 714.166565,563.769104 713.494934,562.129211 &#10;&#9;C705.938049,543.676758 698.388916,525.221069 690.794617,506.784058 &#10;&#9;C685.554871,494.063202 685.523254,494.206299 671.926270,494.042084 &#10;&#9;C668.489502,494.000610 666.997070,495.191559 665.778931,498.282745 &#10;&#9;C659.623901,513.901733 653.212708,529.419617 646.926331,544.987122 &#10;&#9;C643.906189,552.466187 640.963318,559.976379 637.846313,567.822693 &#10;&#9;C641.936829,567.822693 645.478210,567.441345 648.904358,567.907349 &#10;&#9;C654.824219,568.712524 658.237915,566.637573 659.617554,560.716370 &#10;&#9;C660.934814,555.062500 664.178223,551.715698 671.552612,553.304321 &#10;M286.485046,567.828003 &#10;&#9;C288.317657,567.829590 290.275635,568.237793 291.948669,567.721863 &#10;&#9;C293.726227,567.173767 296.421814,565.976929 296.671753,564.671814 &#10;&#9;C298.751160,553.813843 305.696045,551.425415 315.358612,553.136169 &#10;&#9;C316.166473,553.279175 317.021515,553.155884 317.854645,553.155579 &#10;&#9;C329.661133,553.151794 329.616669,553.170166 334.150970,564.093811 &#10;&#9;C334.723236,565.472412 335.998230,567.520813 337.045044,567.581604 &#10;&#9;C342.895660,567.921143 348.776245,567.744934 355.200928,567.744934 &#10;&#9;C354.258270,565.311584 353.703156,563.767090 353.068085,562.256226 &#10;&#9;C345.205017,543.549866 337.322174,524.851868 329.461395,506.144531 &#10;&#9;C324.248138,493.737976 324.261414,493.813263 310.553650,493.997803 &#10;&#9;C307.822113,494.034546 306.439636,494.827667 305.387299,497.425140 &#10;&#9;C296.330475,519.779968 287.120361,542.072693 277.978943,564.393311 &#10;&#9;C277.584473,565.356445 277.413879,566.411316 277.029541,567.826538 &#10;&#9;C280.221863,567.826538 282.881348,567.826538 286.485046,567.828003 &#10;M739.848694,523.500061 &#10;&#9;C739.848694,513.748657 739.848694,503.997253 739.848694,494.491577 &#10;&#9;C733.493530,494.491577 727.903809,494.491577 722.247925,494.491577 &#10;&#9;C722.247925,518.947021 722.247925,543.040710 722.247925,567.535645 &#10;&#9;C728.180969,567.535645 733.896851,567.535645 739.848633,567.535645 &#10;&#9;C739.848633,553.086853 739.848633,538.793457 739.848694,523.500061 &#10;M625.994751,626.369934 &#10;&#9;C632.018372,636.936707 647.885498,639.939636 658.876953,631.615173 &#10;&#9;C668.351624,624.439453 669.775696,610.381470 662.096436,600.910706 &#10;&#9;C655.159851,592.355896 642.269775,590.257751 632.721802,596.129456 &#10;&#9;C623.243225,601.958557 620.331665,614.102112 625.994751,626.369934 &#10;M366.972931,608.696472 &#10;&#9;C366.970184,612.318298 366.384613,616.055725 367.075806,619.539917 &#10;&#9;C369.018829,629.334412 378.086090,636.183105 388.489532,636.300720 &#10;&#9;C398.478455,636.413574 407.197754,630.280334 409.751251,621.344910 &#10;&#9;C412.741119,610.882568 408.754028,600.907654 399.494965,595.685486 &#10;&#9;C387.282959,588.797791 373.766602,593.930420 366.972931,608.696472 &#10;M503.470245,627.955872 &#10;&#9;C500.519379,627.955872 497.568512,627.955872 494.589661,627.955872 &#10;&#9;C494.589661,624.488708 494.589661,621.564087 494.589661,618.224426 &#10;&#9;C500.470123,618.224426 506.061096,618.224426 511.726624,618.224426 &#10;&#9;C511.726624,615.394958 511.726624,613.003052 511.726624,609.885132 &#10;&#9;C505.671021,609.885132 499.955292,609.885132 494.420074,609.885132 &#10;&#9;C494.420074,606.717102 494.420074,604.291382 494.420074,601.502380 &#10;&#9;C500.818207,601.502380 506.888245,601.502380 513.042603,601.502380 &#10;&#9;C513.042603,598.587341 513.042603,596.061096 513.042603,593.622986 &#10;&#9;C503.469391,593.622986 494.369751,593.622986 485.074585,593.622986 &#10;&#9;C485.074585,607.739807 485.074585,621.638794 485.074585,635.691956 &#10;&#9;C494.476318,635.691956 503.603088,635.691956 513.047241,635.691956 &#10;&#9;C513.047241,633.166443 513.047241,630.747070 513.047241,627.956055 &#10;&#9;C510.039581,627.956055 507.242462,627.956055 503.470245,627.955872 &#10;M332.503632,634.111755 &#10;&#9;C346.188293,639.867737 362.183380,632.466797 362.073822,620.429626 &#10;&#9;C354.739868,619.493530 354.840118,619.589905 350.038269,624.583923 &#10;&#9;C348.738403,625.935730 346.730774,626.901428 344.877197,627.373108 &#10;&#9;C338.441284,629.010742 331.994385,624.652710 330.750092,618.086609 &#10;&#9;C329.115814,609.462463 332.995209,601.995789 340.097992,601.654297 &#10;&#9;C343.352997,601.497803 348.142822,602.788940 349.745239,605.129333 &#10;&#9;C353.000824,609.884399 356.619751,609.048767 361.837799,608.365723 &#10;&#9;C360.821381,605.843445 360.289337,603.629822 359.134003,601.812439 &#10;&#9;C354.365265,594.311096 344.810516,590.982117 335.837372,593.631470 &#10;&#9;C327.241150,596.169556 322.430176,602.380188 321.201752,610.873718 &#10;&#9;C319.804260,620.536072 322.995331,628.617432 332.503632,634.111755 &#10;M560.748962,621.957214 &#10;&#9;C560.113892,621.323242 559.518738,620.197632 558.836670,620.142273 &#10;&#9;C556.198669,619.928162 553.532959,620.055237 550.877563,620.055237 &#10;&#9;C551.083252,620.451660 551.288940,620.848083 551.494629,621.244446 &#10;&#9;C548.903381,623.224182 546.584412,625.983582 543.658630,627.005249 &#10;&#9;C538.993713,628.634338 534.376282,627.407776 531.063110,623.352661 &#10;&#9;C527.561768,619.067322 527.115845,612.134460 529.825012,607.320679 &#10;&#9;C533.587402,600.635742 542.666260,599.011414 547.476318,604.938599 &#10;&#9;C551.115784,609.423462 555.019043,609.232483 559.685974,608.668579 &#10;&#9;C556.750977,596.928833 545.245728,590.343872 533.797180,593.629944 &#10;&#9;C522.237061,596.948059 515.873840,609.174194 519.526489,621.049255 &#10;&#9;C522.160095,629.611267 529.340515,635.368652 538.173279,636.000488 &#10;&#9;C548.751160,636.757263 555.716370,632.599915 560.748962,621.957214 &#10;M806.496582,616.426270 &#10;&#9;C810.822754,616.450989 815.153076,616.368896 819.473694,616.536682 &#10;&#9;C822.570068,616.656738 823.495483,615.226257 823.557800,612.343506 &#10;&#9;C823.623901,609.282715 822.400757,608.314392 819.420654,608.317383 &#10;&#9;C788.803406,608.348267 758.185974,608.294800 727.568787,608.211365 &#10;&#9;C724.911316,608.204163 723.598083,609.061584 723.539062,611.918213 &#10;&#9;C723.483826,614.587463 724.454163,616.038757 727.130493,616.226440 &#10;&#9;C728.289917,616.307800 729.455261,616.331604 730.618042,616.333252 &#10;&#9;C755.577942,616.368530 780.537781,616.396973 806.496582,616.426270 &#10;M298.439301,617.308044 &#10;&#9;C303.418213,616.220581 305.592896,613.382263 303.248627,610.038696 &#10;&#9;C302.119232,608.427917 298.778351,607.722717 296.432098,607.708313 &#10;&#9;C268.659637,607.537354 240.885864,607.564087 213.112457,607.581421 &#10;&#9;C211.298019,607.582581 209.262329,607.483032 207.730209,608.240601 &#10;&#9;C206.115555,609.039001 203.759705,610.977295 203.915771,612.118347 &#10;&#9;C204.169312,613.972351 205.984497,615.845947 207.582291,617.183594 &#10;&#9;C208.371094,617.843994 210.147064,617.340759 211.476334,617.337830 &#10;&#9;C240.217712,617.274536 268.959076,617.207581 298.439301,617.308044 &#10;M566.912903,601.871887 &#10;&#9;C570.182190,601.871887 573.451477,601.871887 577.198975,601.871887 &#10;&#9;C577.198975,613.159424 577.198975,624.065735 577.198975,635.288818 &#10;&#9;C580.594421,635.288818 583.500183,635.288818 586.871582,635.288818 &#10;&#9;C586.871582,624.055542 586.871582,612.985718 586.871582,601.537781 &#10;&#9;C591.407654,601.537781 595.490417,601.537781 599.863770,601.537781 &#10;&#9;C599.863770,598.608704 599.863770,596.072815 599.863770,593.655945 &#10;&#9;C593.697083,593.655945 587.880859,593.655945 582.064697,593.655945 &#10;&#9;C576.151489,593.655945 570.238281,593.655945 562.987244,593.655945 &#10;&#9;C564.259094,597.114075 565.131897,599.487305 566.912903,601.871887 &#10;M471.380249,635.777832 &#10;&#9;C473.815155,635.777832 476.250092,635.777832 478.654358,635.777832 &#10;&#9;C478.654358,632.762207 478.654358,630.519104 478.654358,627.817383 &#10;&#9;C472.279327,627.817383 466.206055,627.817383 459.865997,627.817383 &#10;&#9;C459.865997,616.246216 459.865997,605.141418 459.865997,593.772644 &#10;&#9;C456.516449,593.772644 453.455811,593.772644 450.590027,593.772644 &#10;&#9;C450.590027,607.856018 450.590027,621.595398 450.590027,635.776001 &#10;&#9;C457.477356,635.776001 463.944794,635.776001 471.380249,635.777832 &#10;M427.236786,617.492859 &#10;&#9;C427.236786,609.590088 427.236786,601.687317 427.236786,593.989014 &#10;&#9;C423.704407,593.989014 420.793640,593.989014 418.100281,593.989014 &#10;&#9;C418.100281,607.951538 418.100281,621.539795 418.100281,635.430298 &#10;&#9;C426.847382,635.430298 435.266327,635.430298 443.870544,635.430298 &#10;&#9;C443.870544,632.969299 443.870544,630.572144 443.870544,627.779785 &#10;&#9;C438.288971,627.779785 433.009125,627.779785 427.235382,627.779785 &#10;&#9;C427.235382,624.420227 427.235382,621.454651 427.236786,617.492859 &#10;M605.901245,631.320679 &#10;&#9;C606.004272,632.749573 606.107300,634.178467 606.197021,635.423218 &#10;&#9;C609.519104,635.423218 612.405884,635.423218 615.201111,635.423218 &#10;&#9;C615.201111,621.326965 615.201111,607.627930 615.201111,593.768250 &#10;&#9;C611.901245,593.768250 609.007690,593.768250 605.901245,593.768250 &#10;&#9;C605.901245,606.137817 605.901245,618.245911 605.901245,631.320679 &#10;z" stroke="none" opacity="0.000000" fill="#13173D"/>
    <path d="M526.817871,431.132751 &#10;&#9;C522.293701,433.858673 517.769592,436.584595 512.782471,439.681885 &#10;&#9;C511.900330,440.031494 511.481201,440.009735 511.062073,439.988007 &#10;&#9;C507.819336,437.710480 504.576599,435.432922 501.220642,432.705292 &#10;&#9;C501.107391,432.255219 500.737396,431.983765 500.737396,431.983765 &#10;&#9;C500.737396,431.983765 500.354919,431.783386 500.156372,431.329102 &#10;&#9;C499.301392,430.233795 498.644928,429.592773 498.238342,428.638000 &#10;&#9;C498.650818,424.557770 498.813416,420.791321 499.010162,416.618103 &#10;&#9;C499.061432,415.939789 499.078583,415.668213 499.441864,415.549316 &#10;&#9;C502.102234,414.674957 504.332642,413.330536 506.749512,412.692139 &#10;&#9;C510.798309,411.622711 511.440216,409.003845 511.386475,405.314178 &#10;&#9;C511.181213,391.229645 511.259644,377.141052 511.084534,363.055847 &#10;&#9;C511.067596,361.696259 510.402283,359.875641 509.396484,359.083466 &#10;&#9;C506.081055,356.472137 502.470825,354.235077 498.987335,351.487274 &#10;&#9;C498.936737,350.635956 498.872620,350.151672 498.754730,349.240295 &#10;&#9;C498.012665,341.637299 500.528198,336.156952 507.018768,332.614990 &#10;&#9;C507.972870,332.094360 509.123413,330.799103 509.132629,329.852020 &#10;&#9;C509.268372,315.897858 509.226135,301.941956 509.226135,289.919952 &#10;&#9;C501.933746,284.705719 495.962128,280.435852 489.545227,275.847595 &#10;&#9;C487.869263,276.688110 485.320221,277.905853 482.825806,279.226715 &#10;&#9;C449.008270,297.133759 415.179596,315.019836 381.395142,332.989044 &#10;&#9;C366.263580,341.037170 351.195435,349.206573 336.191986,357.490265 &#10;&#9;C334.816132,358.249908 333.268616,360.240662 333.262299,361.666260 &#10;&#9;C333.237823,367.199554 333.804047,372.735474 334.224823,379.460480 &#10;&#9;C348.684235,387.262054 364.304901,395.740631 380.006165,404.067291 &#10;&#9;C381.278717,404.742157 383.401001,404.991638 384.625610,404.399292 &#10;&#9;C397.771362,398.040100 410.815918,391.471588 424.163635,385.154663 &#10;&#9;C424.343140,386.462769 424.247253,387.576721 424.151367,388.690643 &#10;&#9;C410.620026,395.696777 397.131378,402.788300 383.502930,409.600220 &#10;&#9;C381.813019,410.444885 378.984619,410.570953 377.353607,409.730286 &#10;&#9;C362.928467,402.295593 348.654755,394.567169 333.811432,386.606781 &#10;&#9;C331.450226,386.035645 329.613831,385.783264 327.777466,385.530884 &#10;&#9;C326.934601,386.037445 326.091736,386.544067 324.719788,387.419281 &#10;&#9;C322.601196,389.745239 317.335815,387.856445 318.765472,392.972870 &#10;&#9;C318.668579,393.436859 318.571716,393.900879 318.492737,395.129333 &#10;&#9;C318.399780,398.600677 318.288910,401.307556 317.880432,403.761566 &#10;&#9;C317.021820,401.095123 316.460785,398.681549 315.631470,395.113739 &#10;&#9;C314.132629,398.021088 313.376923,399.486969 312.501160,400.588562 &#10;&#9;C311.679535,395.626801 315.074890,389.148865 306.785919,388.033752 &#10;&#9;C306.785919,388.033752 306.714478,387.998505 306.543213,387.630859 &#10;&#9;C305.306946,386.618805 304.241943,385.974365 303.176941,385.329926 &#10;&#9;C303.225067,385.116211 303.149200,384.964417 302.629272,384.559875 &#10;&#9;C301.894165,383.964752 301.479065,383.684296 301.063965,383.403870 &#10;&#9;C295.459595,375.530334 294.010010,367.255493 299.381897,358.755676 &#10;&#9;C304.943542,349.955627 315.396667,347.494507 325.336029,352.655090 &#10;&#9;C327.744171,353.905426 329.328278,353.859467 331.633636,352.619720 &#10;&#9;C382.771820,325.119598 433.945831,297.686005 485.167816,270.342346 &#10;&#9;C487.894592,268.886688 488.679260,267.482300 488.505493,264.271851 &#10;&#9;C487.971283,254.401520 492.470276,246.868210 501.034119,242.083817 &#10;&#9;C509.458130,237.377548 518.078308,237.552414 526.016846,243.156708 &#10;&#9;C534.098267,248.861908 538.244202,256.607727 536.275452,266.838745 &#10;&#9;C536.186340,267.301758 536.263977,267.796875 536.263977,268.334991 &#10;&#9;C568.466248,285.541779 600.606689,302.662384 632.694702,319.880585 &#10;&#9;C652.927063,330.737152 673.156677,341.604431 693.194092,352.812775 &#10;&#9;C696.454712,354.636658 698.237671,352.762634 700.415100,351.836121 &#10;&#9;C707.961060,348.625122 714.947571,349.534790 720.871094,354.965057 &#10;&#9;C727.100952,360.676178 729.494507,367.986847 726.938049,376.303772 &#10;&#9;C724.699951,383.584930 719.125183,387.659637 712.068542,390.128784 &#10;&#9;C712.068542,416.105804 712.068542,441.889923 712.068542,467.907501 &#10;&#9;C710.054443,467.907501 708.294739,467.907501 706.090088,467.907501 &#10;&#9;C706.090088,441.926910 706.090088,416.149872 706.090088,390.807373 &#10;&#9;C702.303650,388.931091 699.120117,387.131287 695.751465,385.799713 &#10;&#9;C694.498474,385.304413 692.569580,385.442749 691.360413,386.076904 &#10;&#9;C676.777283,393.725128 662.256958,401.494019 647.758972,409.303223 &#10;&#9;C645.269348,410.644287 643.255249,411.044586 640.397522,409.577026 &#10;&#9;C626.351746,402.363861 612.125671,395.501587 597.529785,388.096191 &#10;&#9;C597.529419,386.480438 597.962585,385.283875 598.707031,384.196777 &#10;&#9;C611.884705,390.559998 624.812134,396.693054 637.574524,403.152252 &#10;&#9;C640.775513,404.772308 643.364258,404.694122 646.371521,403.089050 &#10;&#9;C660.164978,395.727203 674.025452,388.490631 687.796753,381.088043 &#10;&#9;C688.841064,380.526703 690.009521,379.042206 690.046143,377.950745 &#10;&#9;C690.259033,371.609741 690.150391,365.257904 690.150391,358.370819 &#10;&#9;C638.605652,330.817902 586.276733,302.845825 533.880310,274.837677 &#10;&#9;C530.033081,280.980438 525.327576,285.175629 518.852295,286.637238 &#10;&#9;C515.610535,287.368927 515.096069,288.965363 515.113647,291.838989 &#10;&#9;C515.188232,303.998993 514.975098,316.161377 515.130615,328.319519 &#10;&#9;C515.150208,329.851227 516.352539,332.010193 517.654358,332.771698 &#10;&#9;C523.225220,336.030304 525.950378,340.633118 526.065918,347.064453 &#10;&#9;C526.089355,348.370422 527.346436,349.654205 527.852600,351.218414 &#10;&#9;C527.059753,351.695251 526.449036,351.901917 525.508789,352.151367 &#10;&#9;C522.390747,354.203369 519.797852,356.614960 516.752258,358.094971 &#10;&#9;C514.296021,359.288605 513.359863,360.451782 513.382263,363.228424 &#10;&#9;C513.491882,376.861420 513.310974,390.496460 513.318909,404.130707 &#10;&#9;C513.323242,411.644775 518.536621,415.427277 525.930054,413.823364 &#10;&#9;C525.979797,414.511353 526.003723,414.786255 525.778198,415.306702 &#10;&#9;C524.078491,417.949402 525.806458,427.625519 527.931641,430.117126 &#10;&#9;C527.460022,430.633392 527.138916,430.883087 526.817871,431.132751 &#10;M716.667236,359.738251 &#10;&#9;C709.554504,355.400452 703.125916,355.841125 698.617859,360.975677 &#10;&#9;C694.702271,365.435303 694.663940,374.096161 698.540100,378.546478 &#10;&#9;C703.491699,384.231567 711.575989,384.754211 717.213379,379.753723 &#10;&#9;C722.823486,374.777466 722.842163,366.478485 716.667236,359.738251 &#10;M504.036224,425.539734 &#10;&#9;C504.564758,431.960663 507.916809,435.378815 513.125854,434.808685 &#10;&#9;C518.674316,434.201324 522.787781,429.118561 522.128906,423.684113 &#10;&#9;C521.602722,419.343903 518.113831,416.226746 513.638733,416.098480 &#10;&#9;C508.400818,415.948364 505.415283,418.674896 504.036224,425.539734 &#10;z" stroke="none" opacity="1.000000" fill="#F1F2F5"/>
    <path d="M498.978180,686.131165 &#10;&#9;C499.681458,685.493286 500.488647,684.938110 501.072174,684.204895 &#10;&#9;C507.842682,675.697937 515.910278,675.370178 523.545898,683.217834 &#10;&#9;C524.521484,684.220459 525.985779,684.747681 527.783203,685.972534 &#10;&#9;C528.486877,686.846680 528.631042,687.243530 528.775208,687.640320 &#10;&#9;C528.126465,688.203125 527.477722,688.765930 526.579224,690.008423 &#10;&#9;C526.321472,692.301086 526.313477,693.914185 526.305481,695.527222 &#10;&#9;C525.198242,701.379395 519.890198,703.164734 515.830383,707.074097 &#10;&#9;C515.701599,716.327698 515.601013,724.757751 515.697937,733.185669 &#10;&#9;C515.714111,734.590088 516.589600,735.984558 517.067993,737.383667 &#10;&#9;C523.094238,740.961853 529.120483,744.540100 536.370178,748.844727 &#10;&#9;C592.194336,720.281860 649.745239,690.835449 707.639099,661.213623 &#10;&#9;C708.667908,662.964050 709.552124,664.468384 710.758911,666.521484 &#10;&#9;C703.281250,670.511902 696.173096,674.402649 688.979370,678.128235 &#10;&#9;C640.811401,703.074036 592.672913,728.078125 544.374146,752.768433 &#10;&#9;C539.329895,755.346985 536.579224,757.270874 536.251099,763.870056 &#10;&#9;C535.572388,777.521057 523.912659,786.813599 510.882202,785.936279 &#10;&#9;C498.030670,785.071045 488.703156,774.697083 488.933289,760.894226 &#10;&#9;C488.996674,757.091614 487.664154,755.468628 484.470886,753.816467 &#10;&#9;C430.092163,725.680542 375.784729,697.406738 321.464630,669.157471 &#10;&#9;C320.298798,668.551208 319.169037,667.875488 317.700745,667.051636 &#10;&#9;C318.437317,665.282715 319.114441,663.656494 320.175171,661.109009 &#10;&#9;C377.454559,690.715576 434.405121,720.152222 489.792847,748.781006 &#10;&#9;C496.335388,744.729370 501.907501,741.364990 507.359406,737.815979 &#10;&#9;C508.249176,737.236694 509.118927,735.849182 509.132660,734.823608 &#10;&#9;C509.253052,725.828491 509.237030,716.829529 509.076294,707.835083 &#10;&#9;C509.058105,706.816650 508.137787,705.359985 507.228851,704.884583 &#10;&#9;C500.651398,701.444885 497.883026,696.169067 498.967407,688.150513 &#10;&#9;C498.975586,687.013672 498.976868,686.572388 498.978180,686.131165 &#10;z" stroke="none" opacity="1.000000" fill="#F2F2F5"/>
    <path d="M754.288696,494.895081 &#10;&#9;C759.058838,494.658661 763.835327,494.199554 768.594971,494.334412 &#10;&#9;C769.866699,494.370422 771.332703,496.031586 772.292480,497.269928 &#10;&#9;C780.950134,508.440216 789.512329,519.684448 798.110352,530.901001 &#10;&#9;C799.181213,532.298035 800.297913,533.659851 802.350464,536.242004 &#10;&#9;C802.350464,528.169128 802.350525,521.481689 802.350525,514.794250 &#10;&#9;C802.350525,508.017670 802.350464,501.241089 802.350464,494.269409 &#10;&#9;C808.346619,494.269409 813.792542,494.269409 819.691528,494.269409 &#10;&#9;C819.691528,518.581970 819.691528,542.928040 819.691528,567.824768 &#10;&#9;C815.220764,567.824768 810.616699,568.040833 806.056946,567.686707 &#10;&#9;C804.770447,567.586670 803.364319,566.006226 802.436401,564.783569 &#10;&#9;C793.892578,553.526306 785.450562,542.191833 776.954285,530.898315 &#10;&#9;C775.699890,529.230896 774.316956,527.660156 772.162964,525.030762 &#10;&#9;C772.162964,540.029480 772.162964,553.704590 772.162964,567.899353 &#10;&#9;C766.788269,567.899353 761.847839,567.789978 756.915039,567.936768 &#10;&#9;C753.472534,568.039185 754.545898,565.566345 754.247986,562.953735 &#10;&#9;C754.252502,539.692993 754.270630,517.294006 754.288696,494.895081 &#10;z" stroke="none" opacity="1.000000" fill="#F7F8F8"/>
    <path d="M209.094833,527.000000 &#10;&#9;C209.094131,515.875366 209.094131,505.250732 209.094131,493.491302 &#10;&#9;C222.369644,494.164581 235.622482,493.562256 248.385025,495.780640 &#10;&#9;C267.860657,499.165924 279.017334,515.000427 277.361298,533.898010 &#10;&#9;C275.667267,553.228516 261.712738,566.798401 241.857132,567.740540 &#10;&#9;C231.238327,568.244324 220.575943,567.829895 209.095535,567.829895 &#10;&#9;C209.095535,554.285889 209.095535,540.892944 209.094833,527.000000 &#10;M239.592209,510.745850 &#10;&#9;C235.495331,510.745850 231.398468,510.745850 227.307922,510.745850 &#10;&#9;C227.307922,524.383606 227.307922,537.755859 227.307922,551.093506 &#10;&#9;C248.826401,553.366455 256.843872,546.458984 258.559357,533.975830 &#10;&#9;C260.297699,521.326416 253.614731,512.912964 239.592209,510.745850 &#10;z" stroke="none" opacity="1.000000" fill="#F7F8F8"/>
    <path d="M585.977234,541.008789 &#10;&#9;C585.907166,541.763000 585.837158,542.517273 585.788269,544.097778 &#10;&#9;C585.845215,551.952026 585.881042,558.979980 585.916809,566.007874 &#10;&#9;C584.869507,566.619324 583.841675,567.715759 582.771484,567.758789 &#10;&#9;C577.997009,567.950989 573.210327,567.842224 568.214233,567.842224 &#10;&#9;C568.214233,543.042175 568.214233,518.848572 568.214233,494.521729 &#10;&#9;C574.098572,494.521729 579.665771,494.521729 585.590698,494.521729 &#10;&#9;C585.590698,503.610291 585.590698,512.375244 585.590698,521.504517 &#10;&#9;C595.163330,521.504517 604.387634,521.504517 614.234375,521.504517 &#10;&#9;C614.234375,512.703735 614.234375,503.663422 614.234375,494.343445 &#10;&#9;C620.593262,494.343445 626.337280,494.343445 632.478638,494.343445 &#10;&#9;C632.478638,518.583984 632.478638,542.782593 632.478638,567.433838 &#10;&#9;C626.897583,567.433838 621.170654,567.433838 614.672852,567.433838 &#10;&#9;C614.672852,559.160217 614.600586,550.744934 614.714172,542.332153 &#10;&#9;C614.751282,539.583862 614.415833,537.631775 610.049683,538.387695 &#10;&#9;C602.507629,538.452209 595.898254,538.448730 589.289001,538.472046 &#10;&#9;C587.573242,538.478088 585.270935,537.804016 585.977234,541.008789 &#10;z" stroke="none" opacity="1.000000" fill="#F6F7F8"/>
    <path d="M501.888916,530.135498 &#10;&#9;C501.905060,541.199280 506.443512,548.406067 514.697693,550.924805 &#10;&#9;C524.846680,554.021729 533.053467,551.140259 539.051270,542.538025 &#10;&#9;C539.681519,541.634155 541.038818,540.691345 542.055176,540.695312 &#10;&#9;C547.019409,540.714905 551.982422,541.049805 556.930237,541.272461 &#10;&#9;C556.699890,554.843323 539.916931,568.730713 523.343445,569.364502 &#10;&#9;C502.927124,570.145264 485.087860,555.065796 483.134216,535.375854 &#10;&#9;C481.045349,514.322876 494.676849,496.713959 515.724365,493.276489 &#10;&#9;C534.704407,490.176636 552.886780,502.167084 557.260010,521.863342 &#10;&#9;C551.445740,521.863342 545.890625,521.927917 540.341064,521.782593 &#10;&#9;C539.639038,521.764221 538.791504,520.759338 538.305969,520.018433 &#10;&#9;C532.725708,511.502655 525.189880,508.193542 516.324829,510.443542 &#10;&#9;C507.575165,512.664246 502.811890,519.018005 501.888916,530.135498 &#10;z" stroke="none" opacity="1.000000" fill="#F6F7F8"/>
    <path d="M418.154144,533.019653 &#10;&#9;C423.057373,520.775391 427.759186,508.864410 432.748444,497.075073 &#10;&#9;C433.312897,495.741364 435.457184,494.322235 436.935944,494.246246 &#10;&#9;C451.565369,493.494110 451.619751,493.550659 457.292694,506.943268 &#10;&#9;C465.203857,525.619873 473.037231,544.329407 480.879425,563.035156 &#10;&#9;C481.443329,564.380188 481.807892,565.808899 482.485382,567.867859 &#10;&#9;C476.407562,567.867859 470.821228,568.115906 465.286316,567.692261 &#10;&#9;C463.914062,567.587219 462.155396,565.534668 461.515198,563.987854 &#10;&#9;C457.108093,553.339355 457.188416,553.306274 445.598785,553.322937 &#10;&#9;C444.433136,553.324646 443.239502,553.487610 442.106201,553.295898 &#10;&#9;C432.512543,551.673706 425.750763,554.183228 424.019562,564.952576 &#10;&#9;C423.843628,566.046997 421.534149,567.483459 420.138214,567.573425 &#10;&#9;C415.178131,567.892883 410.184937,567.698120 404.410706,567.698120 &#10;&#9;C409.053345,556.009155 413.545532,544.699036 418.154144,533.019653 &#10;M444.003632,518.450134 &#10;&#9;C443.663666,517.926392 443.323730,517.402588 442.537323,516.190857 &#10;&#9;C439.818176,523.693909 437.339172,530.534363 434.767822,537.629700 &#10;&#9;C440.767792,537.629700 445.946564,537.629700 451.720520,537.629700 &#10;&#9;C449.099670,531.133484 446.685364,525.149231 444.003632,518.450134 &#10;z" stroke="none" opacity="1.000000" fill="#F7F8F8"/>
    <path d="M671.062805,553.301392 &#10;&#9;C664.178223,551.715698 660.934814,555.062500 659.617554,560.716370 &#10;&#9;C658.237915,566.637573 654.824219,568.712524 648.904358,567.907349 &#10;&#9;C645.478210,567.441345 641.936829,567.822693 637.846313,567.822693 &#10;&#9;C640.963318,559.976379 643.906189,552.466187 646.926331,544.987122 &#10;&#9;C653.212708,529.419617 659.623901,513.901733 665.778931,498.282745 &#10;&#9;C666.997070,495.191559 668.489502,494.000610 671.926270,494.042084 &#10;&#9;C685.523254,494.206299 685.554871,494.063202 690.794617,506.784058 &#10;&#9;C698.388916,525.221069 705.938049,543.676758 713.494934,562.129211 &#10;&#9;C714.166565,563.769104 714.753845,565.443542 715.606995,567.702148 &#10;&#9;C709.453613,567.702148 703.991577,567.916199 698.570312,567.540588 &#10;&#9;C697.329224,567.454651 695.425903,565.476807 695.192688,564.132751 &#10;&#9;C693.556091,554.701416 687.902161,551.874878 679.028870,553.363037 &#10;&#9;C676.608093,553.768921 674.048523,553.346558 671.062805,553.301392 &#10;M673.023010,524.508240 &#10;&#9;C671.540283,528.823486 670.057495,533.138733 668.453430,537.807129 &#10;&#9;C674.270752,537.807129 679.354065,537.807129 685.125000,537.807129 &#10;&#9;C682.220703,530.522278 679.476990,523.640137 676.259460,515.569458 &#10;&#9;C674.927002,519.175354 674.082092,521.461914 673.023010,524.508240 &#10;z" stroke="none" opacity="1.000000" fill="#F7F8F8"/>
    <path d="M286.012939,567.827271 &#10;&#9;C282.881348,567.826538 280.221863,567.826538 277.029541,567.826538 &#10;&#9;C277.413879,566.411316 277.584473,565.356445 277.978943,564.393311 &#10;&#9;C287.120361,542.072693 296.330475,519.779968 305.387299,497.425140 &#10;&#9;C306.439636,494.827667 307.822113,494.034546 310.553650,493.997803 &#10;&#9;C324.261414,493.813263 324.248138,493.737976 329.461395,506.144531 &#10;&#9;C337.322174,524.851868 345.205017,543.549866 353.068085,562.256226 &#10;&#9;C353.703156,563.767090 354.258270,565.311584 355.200928,567.744934 &#10;&#9;C348.776245,567.744934 342.895660,567.921143 337.045044,567.581604 &#10;&#9;C335.998230,567.520813 334.723236,565.472412 334.150970,564.093811 &#10;&#9;C329.616669,553.170166 329.661133,553.151794 317.854645,553.155579 &#10;&#9;C317.021515,553.155884 316.166473,553.279175 315.358612,553.136169 &#10;&#9;C305.696045,551.425415 298.751160,553.813843 296.671753,564.671814 &#10;&#9;C296.421814,565.976929 293.726227,567.173767 291.948669,567.721863 &#10;&#9;C290.275635,568.237793 288.317657,567.829590 286.012939,567.827271 &#10;M320.410980,529.001709 &#10;&#9;C318.821655,525.030090 317.232300,521.058472 315.210144,516.005188 &#10;&#9;C312.447479,523.722595 310.024963,530.489746 307.436066,537.721680 &#10;&#9;C313.278107,537.721680 318.359650,537.721680 323.852539,537.721680 &#10;&#9;C322.768066,534.902405 321.765198,532.295166 320.410980,529.001709 &#10;z" stroke="none" opacity="1.000000" fill="#F7F8F8"/>
    <path d="M383.997070,568.096985 &#10;&#9;C383.549347,568.043640 383.101593,567.990295 381.880310,567.927979 &#10;&#9;C378.405945,567.964294 375.705170,568.009521 373.004395,568.054810 &#10;&#9;C373.004395,568.054810 372.563263,567.892029 372.134888,567.496338 &#10;&#9;C371.706543,548.385864 371.706543,529.670959 371.706543,510.727356 &#10;&#9;C363.522583,510.727356 356.088531,510.727356 348.418945,510.727356 &#10;&#9;C348.418945,505.115570 348.418945,499.741974 348.418945,494.143250 &#10;&#9;C369.892273,494.143250 391.004211,494.143250 412.116119,494.143250 &#10;&#9;C412.116119,494.143250 412.290222,494.584534 412.360626,495.191254 &#10;&#9;C412.431030,500.687225 412.431030,505.576477 412.431030,510.800293 &#10;&#9;C404.127228,510.800293 396.718750,510.800293 389.223328,510.800293 &#10;&#9;C389.223328,517.105286 389.223328,523.055969 389.223328,529.006653 &#10;&#9;C389.159546,539.361755 389.095795,549.716797 389.041046,560.962646 &#10;&#9;C389.050049,563.783325 389.050049,565.713257 389.050049,567.662292 &#10;&#9;C386.938354,567.843933 385.467712,567.970459 383.997070,568.096985 &#10;z" stroke="none" opacity="1.000000" fill="#F6F7F8"/>
    <path d="M739.848633,524.000122 &#10;&#9;C739.848633,538.793457 739.848633,553.086853 739.848633,567.535645 &#10;&#9;C733.896851,567.535645 728.180969,567.535645 722.247925,567.535645 &#10;&#9;C722.247925,543.040710 722.247925,518.947021 722.247925,494.491577 &#10;&#9;C727.903809,494.491577 733.493530,494.491577 739.848694,494.491577 &#10;&#9;C739.848694,503.997253 739.848694,513.748657 739.848633,524.000122 &#10;z" stroke="none" opacity="1.000000" fill="#F6F7F8"/>
    <path d="M700.731689,614.539856 &#10;&#9;C700.731689,607.721680 700.731689,600.903442 700.731689,593.757935 &#10;&#9;C704.175171,593.757935 707.101440,593.757935 710.442749,593.757935 &#10;&#9;C710.442749,607.598389 710.442749,621.452454 710.442749,635.399292 &#10;&#9;C705.774414,636.547668 702.301758,635.611267 699.387939,631.335815 &#10;&#9;C694.660339,624.398865 689.335754,617.868713 683.232056,611.595032 &#10;&#9;C683.232056,619.301331 683.232056,627.007690 683.232056,635.127625 &#10;&#9;C679.921143,635.127625 677.064209,635.127625 673.823975,635.127625 &#10;&#9;C673.823975,621.417358 673.823975,607.801819 673.823975,593.848999 &#10;&#9;C678.364929,592.866943 682.183899,592.787903 685.420288,597.862488 &#10;&#9;C689.333740,603.998718 694.418518,609.387939 699.468628,615.497559 &#10;&#9;C700.204468,615.443115 700.468079,614.991516 700.731689,614.539856 &#10;z" stroke="none" opacity="1.000000" fill="#F2F2F5"/>
    <path d="M625.811218,626.044006 &#10;&#9;C620.331665,614.102112 623.243225,601.958557 632.721802,596.129456 &#10;&#9;C642.269775,590.257751 655.159851,592.355896 662.096436,600.910706 &#10;&#9;C669.775696,610.381470 668.351624,624.439453 658.876953,631.615173 &#10;&#9;C647.885498,639.939636 632.018372,636.936707 625.811218,626.044006 &#10;M648.490173,627.366943 &#10;&#9;C653.886902,625.361450 656.758362,621.508179 657.023499,615.733887 &#10;&#9;C657.270569,610.352783 655.561401,605.895813 650.783264,603.034485 &#10;&#9;C646.080383,600.218079 640.479553,600.917236 636.527832,604.654846 &#10;&#9;C632.491516,608.472656 631.303711,615.402100 633.760254,620.801147 &#10;&#9;C636.269409,626.315735 640.757141,628.492371 648.490173,627.366943 &#10;z" stroke="none" opacity="1.000000" fill="#F2F3F5"/>
    <path d="M367.095184,608.319458 &#10;&#9;C373.766602,593.930420 387.282959,588.797791 399.494965,595.685486 &#10;&#9;C408.754028,600.907654 412.741119,610.882568 409.751251,621.344910 &#10;&#9;C407.197754,630.280334 398.478455,636.413574 388.489532,636.300720 &#10;&#9;C378.086090,636.183105 369.018829,629.334412 367.075806,619.539917 &#10;&#9;C366.384613,616.055725 366.970184,612.318298 367.095184,608.319458 &#10;M376.681610,618.517212 &#10;&#9;C378.987976,625.111450 384.094971,628.593323 390.183777,627.722656 &#10;&#9;C396.567932,626.809692 400.613861,622.096802 400.857513,615.289124 &#10;&#9;C401.096375,608.615845 396.972198,602.943359 390.876465,601.560974 &#10;&#9;C381.905121,599.526611 375.409821,606.827820 376.681610,618.517212 &#10;z" stroke="none" opacity="1.000000" fill="#F2F3F5"/>
    <path d="M503.957825,627.955933 &#10;&#9;C507.242462,627.956055 510.039581,627.956055 513.047241,627.956055 &#10;&#9;C513.047241,630.747070 513.047241,633.166443 513.047241,635.691956 &#10;&#9;C503.603088,635.691956 494.476318,635.691956 485.074585,635.691956 &#10;&#9;C485.074585,621.638794 485.074585,607.739807 485.074585,593.622986 &#10;&#9;C494.369751,593.622986 503.469391,593.622986 513.042603,593.622986 &#10;&#9;C513.042603,596.061096 513.042603,598.587341 513.042603,601.502380 &#10;&#9;C506.888245,601.502380 500.818207,601.502380 494.420074,601.502380 &#10;&#9;C494.420074,604.291382 494.420074,606.717102 494.420074,609.885132 &#10;&#9;C499.955292,609.885132 505.671021,609.885132 511.726624,609.885132 &#10;&#9;C511.726624,613.003052 511.726624,615.394958 511.726624,618.224426 &#10;&#9;C506.061096,618.224426 500.470123,618.224426 494.589661,618.224426 &#10;&#9;C494.589661,621.564087 494.589661,624.488708 494.589661,627.955872 &#10;&#9;C497.568512,627.955872 500.519379,627.955872 503.957825,627.955933 &#10;z" stroke="none" opacity="1.000000" fill="#F2F3F5"/>
    <path d="M332.160217,633.966675 &#10;&#9;C322.995331,628.617432 319.804260,620.536072 321.201752,610.873718 &#10;&#9;C322.430176,602.380188 327.241150,596.169556 335.837372,593.631470 &#10;&#9;C344.810516,590.982117 354.365265,594.311096 359.134003,601.812439 &#10;&#9;C360.289337,603.629822 360.821381,605.843445 361.837799,608.365723 &#10;&#9;C356.619751,609.048767 353.000824,609.884399 349.745239,605.129333 &#10;&#9;C348.142822,602.788940 343.352997,601.497803 340.097992,601.654297 &#10;&#9;C332.995209,601.995789 329.115814,609.462463 330.750092,618.086609 &#10;&#9;C331.994385,624.652710 338.441284,629.010742 344.877197,627.373108 &#10;&#9;C346.730774,626.901428 348.738403,625.935730 350.038269,624.583923 &#10;&#9;C354.840118,619.589905 354.739868,619.493530 362.073822,620.429626 &#10;&#9;C362.183380,632.466797 346.188293,639.867737 332.160217,633.966675 &#10;z" stroke="none" opacity="1.000000" fill="#F1F2F5"/>
    <path d="M560.603882,622.328125 &#10;&#9;C555.716370,632.599915 548.751160,636.757263 538.173279,636.000488 &#10;&#9;C529.340515,635.368652 522.160095,629.611267 519.526489,621.049255 &#10;&#9;C515.873840,609.174194 522.237061,596.948059 533.797180,593.629944 &#10;&#9;C545.245728,590.343872 556.750977,596.928833 559.685974,608.668579 &#10;&#9;C555.019043,609.232483 551.115784,609.423462 547.476318,604.938599 &#10;&#9;C542.666260,599.011414 533.587402,600.635742 529.825012,607.320679 &#10;&#9;C527.115845,612.134460 527.561768,619.067322 531.063110,623.352661 &#10;&#9;C534.376282,627.407776 538.993713,628.634338 543.658630,627.005249 &#10;&#9;C546.584412,625.983582 548.903381,623.224182 551.494629,621.244446 &#10;&#9;C551.288940,620.848083 551.083252,620.451660 550.877563,620.055237 &#10;&#9;C553.532959,620.055237 556.198669,619.928162 558.836670,620.142273 &#10;&#9;C559.518738,620.197632 560.113892,621.323242 560.603882,622.328125 &#10;z" stroke="none" opacity="1.000000" fill="#F1F2F5"/>
    <path d="M805.997131,616.426514 &#10;&#9;C780.537781,616.396973 755.577942,616.368530 730.618042,616.333252 &#10;&#9;C729.455261,616.331604 728.289917,616.307800 727.130493,616.226440 &#10;&#9;C724.454163,616.038757 723.483826,614.587463 723.539062,611.918213 &#10;&#9;C723.598083,609.061584 724.911316,608.204163 727.568787,608.211365 &#10;&#9;C758.185974,608.294800 788.803406,608.348267 819.420654,608.317383 &#10;&#9;C822.400757,608.314392 823.623901,609.282715 823.557800,612.343506 &#10;&#9;C823.495483,615.226257 822.570068,616.656738 819.473694,616.536682 &#10;&#9;C815.153076,616.368896 810.822754,616.450989 805.997131,616.426514 &#10;z" stroke="none" opacity="1.000000" fill="#DB2F3D"/>
    <path d="M298.069885,617.224670 &#10;&#9;C268.959076,617.207581 240.217712,617.274536 211.476334,617.337830 &#10;&#9;C210.147064,617.340759 208.371094,617.843994 207.582291,617.183594 &#10;&#9;C205.984497,615.845947 204.169312,613.972351 203.915771,612.118347 &#10;&#9;C203.759705,610.977295 206.115555,609.039001 207.730209,608.240601 &#10;&#9;C209.262329,607.483032 211.298019,607.582581 213.112457,607.581421 &#10;&#9;C240.885864,607.564087 268.659637,607.537354 296.432098,607.708313 &#10;&#9;C298.778351,607.722717 302.119232,608.427917 303.248627,610.038696 &#10;&#9;C305.592896,613.382263 303.418213,616.220581 298.069885,617.224670 &#10;M295.310791,609.968628 &#10;&#9;C265.995911,609.968628 236.681030,609.968628 207.366165,609.968628 &#10;&#9;C207.210175,610.762390 207.054184,611.556091 206.898209,612.349854 &#10;&#9;C208.734604,612.925171 210.569565,613.996216 212.407608,614.001526 &#10;&#9;C240.375351,614.082642 268.343628,614.052002 296.311218,613.922607 &#10;&#9;C297.829102,613.915588 299.341888,612.809998 300.857056,612.215759 &#10;&#9;C299.322418,611.471985 297.787781,610.728149 295.310791,609.968628 &#10;z" stroke="none" opacity="1.000000" fill="#B73249"/>
    <path d="M566.458862,601.866211 &#10;&#9;C565.131897,599.487305 564.259094,597.114075 562.987244,593.655945 &#10;&#9;C570.238281,593.655945 576.151489,593.655945 582.064697,593.655945 &#10;&#9;C587.880859,593.655945 593.697083,593.655945 599.863770,593.655945 &#10;&#9;C599.863770,596.072815 599.863770,598.608704 599.863770,601.537781 &#10;&#9;C595.490417,601.537781 591.407654,601.537781 586.871582,601.537781 &#10;&#9;C586.871582,612.985718 586.871582,624.055542 586.871582,635.288818 &#10;&#9;C583.500183,635.288818 580.594421,635.288818 577.198975,635.288818 &#10;&#9;C577.198975,624.065735 577.198975,613.159424 577.198975,601.871887 &#10;&#9;C573.451477,601.871887 570.182190,601.871887 566.458862,601.866211 &#10;z" stroke="none" opacity="1.000000" fill="#EEEFF2"/>
    <path d="M585.892395,443.596436 &#10;&#9;C587.524353,444.382538 589.183472,445.117188 590.783386,445.963898 &#10;&#9;C596.911682,449.207153 599.803467,456.250824 597.764465,462.873322 &#10;&#9;C595.813965,469.208344 589.998413,472.841248 583.098511,472.034821 &#10;&#9;C576.677307,471.284393 571.510498,465.657623 570.957153,458.920349 &#10;&#9;C570.815979,457.201691 570.415649,455.504272 570.154175,453.261230 &#10;&#9;C570.401367,452.347351 570.628845,451.969269 571.199158,451.648376 &#10;&#9;C575.548279,448.246826 579.304016,444.346375 585.213257,444.026917 &#10;&#9;C585.606079,443.979370 585.791077,443.835236 585.892395,443.596436 &#10;z" stroke="none" opacity="1.000000" fill="#F7F8F8"/>
    <path d="M450.669128,454.883850 &#10;&#9;C449.456696,459.046051 449.261505,463.980072 446.814362,467.205444 &#10;&#9;C442.104584,473.412964 432.391327,473.491058 427.481659,468.234283 &#10;&#9;C422.936279,463.367493 421.622742,453.358582 428.726746,447.908966 &#10;&#9;C429.381134,447.406952 429.955048,446.800049 430.817535,445.976440 &#10;&#9;C431.068726,445.711060 430.925262,445.833527 430.925262,445.833527 &#10;&#9;C431.624268,445.496765 432.323273,445.160034 433.981293,444.119568 &#10;&#9;C436.082642,443.568176 437.224976,443.720459 438.724304,444.044006 &#10;&#9;C442.749176,447.221802 446.417053,450.228394 450.097656,453.464600 &#10;&#9;C450.296661,454.090790 450.482910,454.487335 450.669128,454.883850 &#10;z" stroke="none" opacity="1.000000" fill="#E72237"/>
    <path d="M598.395752,384.087341 &#10;&#9;C597.962585,385.283875 597.529419,386.480438 597.167114,388.001953 &#10;&#9;C595.038391,393.091583 591.255798,396.022156 585.955505,397.904724 &#10;&#9;C585.524658,398.115845 585.340454,397.992004 584.991272,397.833618 &#10;&#9;C580.989624,395.692017 577.337097,393.708832 573.714661,391.450745 &#10;&#9;C573.287537,390.737122 572.830322,390.298431 572.424744,389.376770 &#10;&#9;C572.600525,384.626129 572.724792,380.358521 573.002563,376.028290 &#10;&#9;C573.344482,375.448730 573.533020,374.931763 574.101440,374.356720 &#10;&#9;C578.884827,372.806000 583.375916,369.872742 587.672729,370.133911 &#10;&#9;C595.542542,370.612305 597.476562,377.344452 598.395752,384.087341 &#10;z" stroke="none" opacity="1.000000" fill="#E72237"/>
    <path d="M470.896240,635.776917 &#10;&#9;C463.944794,635.776001 457.477356,635.776001 450.590027,635.776001 &#10;&#9;C450.590027,621.595398 450.590027,607.856018 450.590027,593.772644 &#10;&#9;C453.455811,593.772644 456.516449,593.772644 459.865997,593.772644 &#10;&#9;C459.865997,605.141418 459.865997,616.246216 459.865997,627.817383 &#10;&#9;C466.206055,627.817383 472.279327,627.817383 478.654358,627.817383 &#10;&#9;C478.654358,630.519104 478.654358,632.762207 478.654358,635.777832 &#10;&#9;C476.250092,635.777832 473.815155,635.777832 470.896240,635.776917 &#10;z" stroke="none" opacity="1.000000" fill="#EEEFF2"/>
    <path d="M427.236084,617.990967 &#10;&#9;C427.235382,621.454651 427.235382,624.420227 427.235382,627.779785 &#10;&#9;C433.009125,627.779785 438.288971,627.779785 443.870544,627.779785 &#10;&#9;C443.870544,630.572144 443.870544,632.969299 443.870544,635.430298 &#10;&#9;C435.266327,635.430298 426.847382,635.430298 418.100281,635.430298 &#10;&#9;C418.100281,621.539795 418.100281,607.951538 418.100281,593.989014 &#10;&#9;C420.793640,593.989014 423.704407,593.989014 427.236786,593.989014 &#10;&#9;C427.236786,601.687317 427.236786,609.590088 427.236084,617.990967 &#10;z" stroke="none" opacity="1.000000" fill="#F6F7F8"/>
    <path d="M605.901245,630.837280 &#10;&#9;C605.901245,618.245911 605.901245,606.137817 605.901245,593.768250 &#10;&#9;C609.007690,593.768250 611.901245,593.768250 615.201111,593.768250 &#10;&#9;C615.201111,607.627930 615.201111,621.326965 615.201111,635.423218 &#10;&#9;C612.405884,635.423218 609.519104,635.423218 606.197021,635.423218 &#10;&#9;C606.107300,634.178467 606.004272,632.749573 605.901245,630.837280 &#10;z" stroke="none" opacity="1.000000" fill="#F6F7F8"/>
    <path d="M411.870300,493.868713 &#10;&#9;C391.004211,494.143250 369.892273,494.143250 348.418945,494.143250 &#10;&#9;C348.418945,499.741974 348.418945,505.115570 348.418945,510.727356 &#10;&#9;C356.088531,510.727356 363.522583,510.727356 371.706543,510.727356 &#10;&#9;C371.706543,529.670959 371.706543,548.385864 371.902435,567.531616 &#10;&#9;C371.093597,566.564941 369.211609,565.161987 369.220062,563.770691 &#10;&#9;C369.302979,550.151245 369.858124,536.534973 369.962646,522.915344 &#10;&#9;C370.055450,510.817688 371.716675,512.040649 358.542786,511.993713 &#10;&#9;C358.209869,511.992523 357.875275,511.989258 357.544159,512.017822 &#10;&#9;C346.020081,513.010803 346.024048,513.011353 346.003235,501.270935 &#10;&#9;C346.000275,499.607025 345.903198,497.943085 345.910126,496.279419 &#10;&#9;C345.923035,493.168396 349.071442,490.800446 352.120941,491.107178 &#10;&#9;C359.661316,491.865570 367.216034,492.711060 374.782074,492.929352 &#10;&#9;C385.432159,493.236633 396.097748,492.984222 406.756409,493.035797 &#10;&#9;C408.379974,493.043640 410.001831,493.399384 411.870300,493.868713 &#10;z" stroke="none" opacity="1.000000" fill="#181D41"/>
    <path d="M424.391968,388.926025 &#10;&#9;C424.247253,387.576721 424.343140,386.462769 424.239868,384.788666 &#10;&#9;C422.908722,375.081268 428.663483,368.225708 437.677521,369.403137 &#10;&#9;C441.985748,369.965881 445.937042,373.261444 450.011108,375.609344 &#10;&#9;C450.274261,376.286530 450.576294,376.673584 450.792480,377.480621 &#10;&#9;C450.757782,381.891663 450.808960,385.882721 450.555603,389.986176 &#10;&#9;C450.100739,390.447815 449.950409,390.797028 449.517456,391.294800 &#10;&#9;C445.577240,393.700958 441.919647,395.958588 438.183075,398.351776 &#10;&#9;C437.731934,398.581909 437.359772,398.676483 436.987610,398.771088 &#10;&#9;C432.869263,395.567871 428.750916,392.364655 424.391968,388.926025 &#10;M432.503815,372.713440 &#10;&#9;C425.845184,377.481506 424.724243,385.590424 430.679260,390.971313 &#10;&#9;C433.082642,393.142975 437.937714,395.412811 440.123474,394.372803 &#10;&#9;C443.639954,392.699707 448.649384,390.941467 448.228546,384.639313 &#10;&#9;C447.703003,376.769287 442.229095,371.828644 432.503815,372.713440 &#10;z" stroke="none" opacity="1.000000" fill="#B73249"/>
    <path d="M312.541901,450.979462 &#10;&#9;C312.440460,450.475342 312.338989,449.971252 312.227112,448.774628 &#10;&#9;C312.360199,443.049042 312.503723,438.015930 312.956787,432.805786 &#10;&#9;C313.060699,429.424438 312.855011,426.220093 312.510223,422.581726 &#10;&#9;C312.463806,419.427612 312.556488,416.707550 312.992035,413.971039 &#10;&#9;C314.914703,413.638397 316.494476,413.322205 318.074280,413.005981 &#10;&#9;C318.173309,413.463867 318.272369,413.921753 318.391693,415.085938 &#10;&#9;C318.308014,416.854218 318.204071,417.916168 317.820312,419.228088 &#10;&#9;C317.731659,421.326691 317.922760,423.175385 318.237732,425.451599 &#10;&#9;C318.291595,428.244263 318.221588,430.609375 317.990143,433.079834 &#10;&#9;C317.946533,433.466888 318.064362,433.748566 318.313446,434.480042 &#10;&#9;C318.358887,440.281708 318.273102,445.633575 317.717834,450.981445 &#10;&#9;C315.679565,450.978149 314.110748,450.978790 312.541901,450.979462 &#10;z" stroke="none" opacity="1.000000" fill="#E5E8EA"/>
    <path d="M498.722839,685.901978 &#10;&#9;C498.976868,686.572388 498.975586,687.013672 498.942413,687.784546 &#10;&#9;C483.447205,680.542297 467.983856,672.970459 452.520508,665.398682 &#10;&#9;C452.834503,664.767517 453.148468,664.136414 453.462463,663.505310 &#10;&#9;C468.464142,670.894470 483.465851,678.283630 498.722839,685.901978 &#10;z" stroke="none" opacity="1.000000" fill="#C9CBDD"/>
    <path d="M436.918182,399.255066 &#10;&#9;C437.359772,398.676483 437.731934,398.581909 438.281128,398.789795 &#10;&#9;C438.427887,414.019104 438.397614,428.945953 438.367310,443.872772 &#10;&#9;C437.224976,443.720459 436.082642,443.568176 434.950317,443.474945 &#10;&#9;C435.469055,442.498932 436.405029,441.470734 436.421844,440.427734 &#10;&#9;C436.640106,426.866058 436.727997,413.302307 436.918182,399.255066 &#10;z" stroke="none" opacity="1.000000" fill="#C9CBDD"/>
    <path d="M451.023499,454.776917 &#10;&#9;C450.482910,454.487335 450.296661,454.090790 450.403748,453.284515 &#10;&#9;C466.460876,444.900421 482.224670,436.926086 497.988464,428.951752 &#10;&#9;C498.644928,429.592773 499.301392,430.233795 500.059387,431.136200 &#10;&#9;C497.675873,432.172821 495.033020,432.630676 492.731689,433.775208 &#10;&#9;C478.903534,440.652588 465.153839,447.687744 451.023499,454.776917 &#10;z" stroke="none" opacity="1.000000" fill="#C9CBDD"/>
    <path d="M529.110779,687.553894 &#10;&#9;C528.631042,687.243530 528.486877,686.846680 528.131714,685.852783 &#10;&#9;C542.940491,678.068359 557.960266,670.881165 572.980103,663.693970 &#10;&#9;C573.256409,664.245178 573.532776,664.796387 573.809143,665.347595 &#10;&#9;C559.021545,672.720886 544.233948,680.094177 529.110779,687.553894 &#10;z" stroke="none" opacity="1.000000" fill="#C9CBDD"/>
    <path d="M318.187286,450.985413 &#10;&#9;C318.273102,445.633575 318.358887,440.281708 318.407257,434.213196 &#10;&#9;C318.297058,433.322510 318.224304,433.148499 318.151581,432.974518 &#10;&#9;C318.221588,430.609375 318.291595,428.244263 318.334045,425.027313 &#10;&#9;C318.237671,422.443054 318.168884,420.710602 318.100098,418.978149 &#10;&#9;C318.204071,417.916168 318.308014,416.854218 318.535339,415.408936 &#10;&#9;C319.102539,416.676819 319.908447,418.322449 319.933838,419.980011 &#10;&#9;C320.168121,435.270264 320.354706,450.562897 320.295837,465.853851 &#10;&#9;C320.288422,467.769073 318.777496,469.678528 317.771942,472.039764 &#10;&#9;C315.384888,470.902588 312.877258,470.004181 310.710144,468.585571 &#10;&#9;C308.842316,467.362854 308.976257,465.858002 311.776123,465.422424 &#10;&#9;C312.509155,469.529205 315.217865,467.558441 317.294128,467.837006 &#10;&#9;C317.738861,467.596893 317.899750,467.297699 318.214600,466.553833 &#10;&#9;C318.308136,461.067871 318.247711,456.026642 318.187286,450.985413 &#10;z" stroke="none" opacity="1.000000" fill="#0D0B26"/>
    <path d="M570.856262,451.591187 &#10;&#9;C570.628845,451.969269 570.401367,452.347351 569.906128,452.928040 &#10;&#9;C555.504944,445.978668 541.371521,438.826630 527.027954,431.403656 &#10;&#9;C527.138916,430.883087 527.460022,430.633392 528.296509,430.164429 &#10;&#9;C542.826660,437.160492 556.841431,444.375824 570.856262,451.591187 &#10;z" stroke="none" opacity="1.000000" fill="#C9CBDD"/>
    <path d="M389.587769,528.870728 &#10;&#9;C389.223328,523.055969 389.223328,517.105286 389.223328,510.800293 &#10;&#9;C396.718750,510.800293 404.127228,510.800293 412.431030,510.800293 &#10;&#9;C412.431030,505.576477 412.431030,500.687225 412.549988,495.334045 &#10;&#9;C413.110016,497.532990 413.749786,500.181702 413.940125,502.862335 &#10;&#9;C414.162292,505.991821 413.992065,509.149200 413.992065,512.888916 &#10;&#9;C408.721191,512.592590 403.358185,512.128662 397.988525,512.030579 &#10;&#9;C391.355499,511.909332 391.113464,512.395325 390.946869,519.120239 &#10;&#9;C390.867371,522.331360 390.299072,525.530334 389.587769,528.870728 &#10;z" stroke="none" opacity="1.000000" fill="#181D41"/>
    <path d="M317.717834,450.981445 &#10;&#9;C318.247711,456.026642 318.308136,461.067871 318.001526,466.626678 &#10;&#9;C317.360687,467.290741 317.152618,467.501953 317.010315,467.777954 &#10;&#9;C315.217865,467.558441 312.509155,469.529205 312.103088,465.382324 &#10;&#9;C312.114868,460.588593 312.222992,456.177917 312.436523,451.373352 &#10;&#9;C314.110748,450.978790 315.679565,450.978149 317.717834,450.981445 &#10;z" stroke="none" opacity="1.000000" fill="#F1F2F5"/>
    <path d="M585.340454,397.992004 &#10;&#9;C585.340454,397.992004 585.524658,398.115845 585.620178,398.059448 &#10;&#9;C585.902100,398.863403 586.088501,399.723785 586.414429,401.257080 &#10;&#9;C586.663086,403.626099 586.772400,405.322235 586.881714,407.018341 &#10;&#9;C586.809265,418.041504 586.736816,429.064697 586.701050,440.796631 &#10;&#9;C586.813965,441.665283 586.890320,441.825165 586.966736,441.985077 &#10;&#9;C586.826904,442.279755 586.687012,442.574432 586.219788,443.232788 &#10;&#9;C585.791077,443.835236 585.606079,443.979370 585.179626,443.557709 &#10;&#9;C585.127991,428.055084 585.234192,413.023529 585.340454,397.992004 &#10;z" stroke="none" opacity="1.000000" fill="#E5E8EA"/>
    <path d="M510.991119,440.452637 &#10;&#9;C511.481201,440.009735 511.900330,440.031494 512.632935,440.020386 &#10;&#9;C512.946350,453.203400 512.946350,466.419250 512.946350,479.635071 &#10;&#9;C512.367065,479.668091 511.787750,479.701111 511.208435,479.734131 &#10;&#9;C510.640198,473.463837 511.067932,467.108429 510.981720,460.804260 &#10;&#9;C510.891083,454.176208 510.935028,447.546356 510.991119,440.452637 &#10;z" stroke="none" opacity="1.000000" fill="#C9CBDD"/>
    <path d="M312.647247,432.982849 &#10;&#9;C312.503723,438.015930 312.360199,443.049042 312.114594,448.539673 &#10;&#9;C311.673798,447.260956 311.051971,445.526367 311.041382,443.788116 &#10;&#9;C310.960236,430.459503 310.977814,417.130188 311.008179,403.801147 &#10;&#9;C311.020782,398.276581 312.003601,392.490417 306.600952,388.357300 &#10;&#9;C315.074890,389.148865 311.679535,395.626801 312.360779,401.020020 &#10;&#9;C312.436981,404.213837 312.533539,406.611938 312.513428,409.414307 &#10;&#9;C312.480896,411.208221 312.565002,412.597870 312.649170,413.987488 &#10;&#9;C312.556488,416.707550 312.463806,419.427612 312.385529,423.020203 &#10;&#9;C312.482361,426.922791 312.564819,429.952820 312.647247,432.982849 &#10;z" stroke="none" opacity="1.000000" fill="#0D0B26"/>
    <path d="M753.959961,495.177612 &#10;&#9;C754.270630,517.294006 754.252502,539.692993 754.121582,562.549500 &#10;&#9;C753.672729,561.769531 753.047607,560.532837 753.043884,559.294373 &#10;&#9;C752.982788,538.972046 752.991516,518.649475 753.026611,498.326996 &#10;&#9;C753.028259,497.371033 753.420715,496.415741 753.959961,495.177612 &#10;z" stroke="none" opacity="1.000000" fill="#0D0B26"/>
    <path d="M312.630096,409.010040 &#10;&#9;C312.533539,406.611938 312.436981,404.213837 312.480835,401.384277 &#10;&#9;C313.376923,399.486969 314.132629,398.021088 315.631470,395.113739 &#10;&#9;C316.460785,398.681549 317.021820,401.095123 318.012695,404.159729 &#10;&#9;C318.541229,406.197449 318.639923,407.584137 318.738647,408.970825 &#10;&#9;C318.613556,409.131592 318.488495,409.292358 317.867188,409.711975 &#10;&#9;C315.790710,409.650574 314.210388,409.330322 312.630096,409.010040 &#10;z" stroke="none" opacity="1.000000" fill="#E5E8EA"/>
    <path d="M517.058960,736.887329 &#10;&#9;C516.589600,735.984558 515.714111,734.590088 515.697937,733.185669 &#10;&#9;C515.601013,724.757751 515.701599,716.327698 515.854736,707.441284 &#10;&#9;C516.319092,709.691345 516.905396,712.393311 516.963562,715.106567 &#10;&#9;C517.115601,722.198730 517.036743,729.295837 517.058960,736.887329 &#10;z" stroke="none" opacity="1.000000" fill="#0D0B26"/>
    <path d="M384.049316,568.424683 &#10;&#9;C385.467712,567.970459 386.938354,567.843933 389.050049,567.662292 &#10;&#9;C389.050049,565.713257 389.050049,563.783325 389.130981,561.423218 &#10;&#9;C389.942200,561.723816 391.226379,562.400208 391.304626,563.195251 &#10;&#9;C391.605865,566.256042 390.886444,569.117798 387.407928,569.933411 &#10;&#9;C386.450745,570.157837 385.211426,569.179016 384.049316,568.424683 &#10;z" stroke="none" opacity="1.000000" fill="#181D41"/>
    <path d="M319.039337,408.770538 &#10;&#9;C318.639923,407.584137 318.541229,406.197449 318.310303,404.412598 &#10;&#9;C318.288910,401.307556 318.399780,398.600677 318.638977,395.461731 &#10;&#9;C318.958221,399.543182 319.149109,404.056702 319.039337,408.770538 &#10;z" stroke="none" opacity="1.000000" fill="#0D0B26"/>
    <path d="M586.392822,540.948914 &#10;&#9;C585.270935,537.804016 587.573242,538.478088 589.289001,538.472046 &#10;&#9;C595.898254,538.448730 602.507629,538.452209 609.575684,538.562500 &#10;&#9;C609.054871,539.135132 608.094971,539.933838 607.092590,539.991211 &#10;&#9;C600.336243,540.378357 593.570801,540.608276 586.392822,540.948914 &#10;z" stroke="none" opacity="1.000000" fill="#0D0B26"/>
    <path d="M312.513428,409.414307 &#10;&#9;C314.210388,409.330322 315.790710,409.650574 317.724762,409.982269 &#10;&#9;C318.141083,410.750824 318.203644,411.507965 318.170227,412.635559 &#10;&#9;C316.494476,413.322205 314.914703,413.638397 312.992004,413.971039 &#10;&#9;C312.565002,412.597870 312.480896,411.208221 312.513428,409.414307 &#10;z" stroke="none" opacity="1.000000" fill="#F1F2F5"/>
    <path d="M586.191772,565.776489 &#10;&#9;C585.881042,558.979980 585.845215,551.952026 585.902710,544.464233 &#10;&#9;C586.152893,551.184509 586.309814,558.364807 586.191772,565.776489 &#10;z" stroke="none" opacity="1.000000" fill="#0D0B26"/>
    <path d="M319.053040,392.820679 &#10;&#9;C317.335815,387.856445 322.601196,389.745239 324.536316,387.653076 &#10;&#9;C325.885895,392.302612 320.348511,390.048798 319.053040,392.820679 &#10;z" stroke="none" opacity="1.000000" fill="#0D0B26"/>
    <path d="M327.947876,385.872620 &#10;&#9;C329.613831,385.783264 331.450226,386.035645 333.490173,386.565369 &#10;&#9;C331.835297,386.633240 329.976776,386.423798 327.947876,385.872620 &#10;z" stroke="none" opacity="1.000000" fill="#0D0B26"/>
    <path d="M373.304443,568.304749 &#10;&#9;C375.705170,568.009521 378.405945,567.964294 381.548981,568.006592 &#10;&#9;C379.195648,568.247742 376.400055,568.401245 373.304443,568.304749 &#10;z" stroke="none" opacity="1.000000" fill="#181D41"/>
    <path d="M587.162231,406.765869 &#10;&#9;C586.772400,405.322235 586.663086,403.626099 586.626404,401.510315 &#10;&#9;C586.946899,402.898254 587.194824,404.705841 587.162231,406.765869 &#10;z" stroke="none" opacity="1.000000" fill="#0D0B26"/>
    <path d="M303.197266,385.763794 &#10;&#9;C304.241943,385.974365 305.306946,386.618805 306.554565,387.592712 &#10;&#9;C305.563995,387.347321 304.390778,386.772491 303.197266,385.763794 &#10;z" stroke="none" opacity="1.000000" fill="#0D0B26"/>
    <path d="M526.560974,695.201782 &#10;&#9;C526.313477,693.914185 526.321472,692.301086 526.524902,690.344055 &#10;&#9;C526.752441,691.625488 526.784485,693.250854 526.560974,695.201782 &#10;z" stroke="none" opacity="1.000000" fill="#C9CBDD"/>
    <path d="M430.925720,445.786194 &#10;&#9;C430.925262,445.833527 431.068726,445.711060 431.084351,445.673767 &#10;&#9;C431.099976,445.636475 430.926208,445.738861 430.925720,445.786194 &#10;z" stroke="none" opacity="1.000000" fill="#C9CBDD"/>
    <path d="M500.694153,432.106171 &#10;&#9;C500.737396,431.983765 501.107391,432.255219 501.077759,432.375854 &#10;&#9;C500.840881,432.518097 500.708496,432.428802 500.694153,432.106171 &#10;z" stroke="none" opacity="1.000000" fill="#C9CBDD"/>
    <path d="M587.113281,441.881958 &#10;&#9;C586.890320,441.825165 586.813965,441.665283 586.818726,441.252563 &#10;&#9;C587.019775,441.259430 587.139771,441.519135 587.113281,441.881958 &#10;z" stroke="none" opacity="1.000000" fill="#0D0B26"/>
    <path d="M301.243652,383.740417 &#10;&#9;C301.479065,383.684296 301.894165,383.964752 302.492706,384.577179 &#10;&#9;C302.258545,384.631775 301.840942,384.354370 301.243652,383.740417 &#10;z" stroke="none" opacity="1.000000" fill="#0D0B26"/>
    <path d="M598.707031,384.196777 &#10;&#9;C597.476562,377.344452 595.542542,370.612305 587.672729,370.133911 &#10;&#9;C583.375916,369.872742 578.884827,372.806000 573.800720,374.184418 &#10;&#9;C558.091614,366.362885 543.063171,358.655579 528.034729,350.948242 &#10;&#9;C527.346436,349.654205 526.089355,348.370422 526.065918,347.064453 &#10;&#9;C525.950378,340.633118 523.225220,336.030304 517.654358,332.771698 &#10;&#9;C516.352539,332.010193 515.150208,329.851227 515.130615,328.319519 &#10;&#9;C514.975098,316.161377 515.188232,303.998993 515.113647,291.838989 &#10;&#9;C515.096069,288.965363 515.610535,287.368927 518.852295,286.637238 &#10;&#9;C525.327576,285.175629 530.033081,280.980438 533.880310,274.837677 &#10;&#9;C586.276733,302.845825 638.605652,330.817902 690.150391,358.370819 &#10;&#9;C690.150391,365.257904 690.259033,371.609741 690.046143,377.950745 &#10;&#9;C690.009521,379.042206 688.841064,380.526703 687.796753,381.088043 &#10;&#9;C674.025452,388.490631 660.164978,395.727203 646.371521,403.089050 &#10;&#9;C643.364258,404.694122 640.775513,404.772308 637.574524,403.152252 &#10;&#9;C624.812134,396.693054 611.884705,390.559998 598.707031,384.196777 &#10;z" stroke="none" opacity="0.000000" fill="#14183C"/>
    <path d="M450.049988,375.319214 &#10;&#9;C445.937042,373.261444 441.985748,369.965881 437.677521,369.403137 &#10;&#9;C428.663483,368.225708 422.908722,375.081268 423.964447,384.594482 &#10;&#9;C410.815918,391.471588 397.771362,398.040100 384.625610,404.399292 &#10;&#9;C383.401001,404.991638 381.278717,404.742157 380.006165,404.067291 &#10;&#9;C364.304901,395.740631 348.684235,387.262054 334.224823,379.460480 &#10;&#9;C333.804047,372.735474 333.237823,367.199554 333.262299,361.666260 &#10;&#9;C333.268616,360.240662 334.816132,358.249908 336.191986,357.490265 &#10;&#9;C351.195435,349.206573 366.263580,341.037170 381.395142,332.989044 &#10;&#9;C415.179596,315.019836 449.008270,297.133759 482.825806,279.226715 &#10;&#9;C485.320221,277.905853 487.869263,276.688110 489.545227,275.847595 &#10;&#9;C495.962128,280.435852 501.933746,284.705719 509.226135,289.919952 &#10;&#9;C509.226135,301.941956 509.268372,315.897858 509.132629,329.852020 &#10;&#9;C509.123413,330.799103 507.972870,332.094360 507.018768,332.614990 &#10;&#9;C500.528198,336.156952 498.012665,341.637299 498.422943,349.376770 &#10;&#9;C482.113281,358.400024 466.081635,366.859619 450.049988,375.319214 &#10;z" stroke="none" opacity="0.000000" fill="#13183C"/>
    <path d="M450.860107,389.873779 &#10;&#9;C450.808960,385.882721 450.757782,381.891663 451.137848,377.348022 &#10;&#9;C467.370667,368.481720 483.172241,360.167999 498.973816,351.854309 &#10;&#9;C502.470825,354.235077 506.081055,356.472137 509.396484,359.083466 &#10;&#9;C510.402283,359.875641 511.067596,361.696259 511.084534,363.055847 &#10;&#9;C511.259644,377.141052 511.181213,391.229645 511.386475,405.314178 &#10;&#9;C511.440216,409.003845 510.798309,411.622711 506.749512,412.692139 &#10;&#9;C504.332642,413.330536 502.102234,414.674957 499.228088,415.315735 &#10;&#9;C482.732147,406.577576 466.796112,398.225677 450.860107,389.873779 &#10;z" stroke="none" opacity="0.000000" fill="#14183C"/>
    <path d="M572.849060,376.090881 &#10;&#9;C572.724792,380.358521 572.600525,384.626129 572.070557,389.534424 &#10;&#9;C556.411194,397.920166 541.157715,405.665222 525.904236,413.410278 &#10;&#9;C518.536621,415.427277 513.323242,411.644775 513.318909,404.130707 &#10;&#9;C513.310974,390.496460 513.491882,376.861420 513.382263,363.228424 &#10;&#9;C513.359863,360.451782 514.296021,359.288605 516.752258,358.094971 &#10;&#9;C519.797852,356.614960 522.390747,354.203369 525.722717,352.428680 &#10;&#9;C541.793823,360.472412 557.321472,368.281647 572.849060,376.090881 &#10;z" stroke="none" opacity="0.000000" fill="#161A3D"/>
    <path d="M498.238342,428.638000 &#10;&#9;C482.224670,436.926086 466.460876,444.900421 450.390991,453.054871 &#10;&#9;C446.417053,450.228394 442.749176,447.221802 438.724335,444.044006 &#10;&#9;C438.397614,428.945953 438.427887,414.019104 438.360107,398.654266 &#10;&#9;C441.919647,395.958588 445.577240,393.700958 449.774414,391.519043 &#10;&#9;C451.330841,392.139709 452.342621,392.694336 453.365356,393.228058 &#10;&#9;C468.568054,401.161926 483.772247,409.093048 498.976074,417.024841 &#10;&#9;C498.813416,420.791321 498.650818,424.557770 498.238342,428.638000 &#10;z" stroke="none" opacity="0.000000" fill="#15183C"/>
    <path d="M584.991211,397.833618 &#10;&#9;C585.234192,413.023529 585.127991,428.055084 585.055420,443.555786 &#10;&#9;C579.304016,444.346375 575.548279,448.246826 571.199158,451.648376 &#10;&#9;C556.841431,444.375824 542.826660,437.160492 528.447021,429.897827 &#10;&#9;C525.806458,427.625519 524.078491,417.949402 526.139526,415.259094 &#10;&#9;C542.395081,407.219269 558.039856,399.472473 573.684631,391.725677 &#10;&#9;C577.337097,393.708832 580.989624,395.692017 584.991211,397.833618 &#10;z" stroke="none" opacity="0.000000" fill="#14183D"/>
    <path d="M716.962280,359.979919 &#10;&#9;C722.842163,366.478485 722.823486,374.777466 717.213379,379.753723 &#10;&#9;C711.575989,384.754211 703.491699,384.231567 698.540100,378.546478 &#10;&#9;C694.663940,374.096161 694.702271,365.435303 698.617859,360.975677 &#10;&#9;C703.125916,355.841125 709.554504,355.400452 716.962280,359.979919 &#10;z" stroke="none" opacity="1.000000" fill="#161A3D"/>
    <path d="M498.987335,351.487244 &#10;&#9;C483.172241,360.167999 467.370667,368.481720 451.223724,376.928040 &#10;&#9;C450.576294,376.673584 450.274261,376.286530 450.011108,375.609375 &#10;&#9;C466.081635,366.859619 482.113281,358.400024 498.476715,349.803894 &#10;&#9;C498.872620,350.151672 498.936737,350.635956 498.987335,351.487244 &#10;z" stroke="none" opacity="1.000000" fill="#C9CBDD"/>
    <path d="M504.064270,425.178192 &#10;&#9;C505.415283,418.674896 508.400818,415.948364 513.638733,416.098480 &#10;&#9;C518.113831,416.226746 521.602722,419.343903 522.128906,423.684113 &#10;&#9;C522.787781,429.118561 518.674316,434.201324 513.125854,434.808685 &#10;&#9;C507.916809,435.378815 504.564758,431.960663 504.064270,425.178192 &#10;M515.645691,418.282684 &#10;&#9;C512.358643,417.777527 510.044556,419.171722 507.809631,421.563812 &#10;&#9;C505.402283,424.140320 505.260956,426.929199 507.195465,429.157104 &#10;&#9;C508.627136,430.805969 511.576721,432.410736 513.475586,432.052124 &#10;&#9;C515.762329,431.620178 518.465881,429.497131 519.531128,427.374512 &#10;&#9;C521.296265,423.857483 519.297058,420.710236 515.645691,418.282684 &#10;z" stroke="none" opacity="1.000000" fill="#B73249"/>
    <path d="M499.010193,416.618103 &#10;&#9;C483.772247,409.093048 468.568054,401.161926 453.365356,393.228058 &#10;&#9;C452.342621,392.694336 451.330841,392.139709 450.057037,391.370544 &#10;&#9;C449.950409,390.797028 450.100739,390.447815 450.555573,389.986176 &#10;&#9;C466.796112,398.225677 482.732147,406.577576 498.881958,415.163025 &#10;&#9;C499.078583,415.668213 499.061432,415.939789 499.010193,416.618103 &#10;z" stroke="none" opacity="1.000000" fill="#C9CBDD"/>
    <path d="M573.002563,376.028290 &#10;&#9;C557.321472,368.281647 541.793823,360.472412 526.052246,352.385864 &#10;&#9;C526.449036,351.901917 527.059753,351.695251 527.852600,351.218414 &#10;&#9;C543.063171,358.655579 558.091614,366.362885 573.420776,374.242493 &#10;&#9;C573.533020,374.931763 573.344482,375.448730 573.002563,376.028290 &#10;z" stroke="none" opacity="1.000000" fill="#C9CBDD"/>
    <path d="M573.714661,391.450745 &#10;&#9;C558.039856,399.472473 542.395081,407.219269 526.388916,415.013611 &#10;&#9;C526.003723,414.786255 525.979797,414.511353 525.930054,413.823364 &#10;&#9;C541.157715,405.665222 556.411194,397.920166 572.018921,390.017426 &#10;&#9;C572.830322,390.298431 573.287537,390.737122 573.714661,391.450745 &#10;z" stroke="none" opacity="1.000000" fill="#C9CBDD"/>
    <path d="M240.015747,510.781799 &#10;&#9;C253.614731,512.912964 260.297699,521.326416 258.559357,533.975830 &#10;&#9;C256.843872,546.458984 248.826401,553.366455 227.307922,551.093506 &#10;&#9;C227.307922,537.755859 227.307922,524.383606 227.307922,510.745850 &#10;&#9;C231.398468,510.745850 235.495331,510.745850 240.015747,510.781799 &#10;z" stroke="none" opacity="0.000000" fill="#161A3D"/>
    <path d="M444.137329,518.807495 &#10;&#9;C446.685364,525.149231 449.099670,531.133484 451.720520,537.629700 &#10;&#9;C445.946564,537.629700 440.767792,537.629700 434.767822,537.629700 &#10;&#9;C437.339172,530.534363 439.818176,523.693909 442.537323,516.190857 &#10;&#9;C443.323730,517.402588 443.663666,517.926392 444.137329,518.807495 &#10;z" stroke="none" opacity="1.000000" fill="#181D41"/>
    <path d="M673.130127,524.128296 &#10;&#9;C674.082092,521.461914 674.927002,519.175354 676.259460,515.569458 &#10;&#9;C679.476990,523.640137 682.220703,530.522278 685.125000,537.807129 &#10;&#9;C679.354065,537.807129 674.270752,537.807129 668.453430,537.807129 &#10;&#9;C670.057495,533.138733 671.540283,528.823486 673.130127,524.128296 &#10;z" stroke="none" opacity="1.000000" fill="#181D41"/>
    <path d="M320.586670,529.344849 &#10;&#9;C321.765198,532.295166 322.768066,534.902405 323.852539,537.721680 &#10;&#9;C318.359650,537.721680 313.278107,537.721680 307.436066,537.721680 &#10;&#9;C310.024963,530.489746 312.447479,523.722595 315.210144,516.005188 &#10;&#9;C317.232300,521.058472 318.821655,525.030090 320.586670,529.344849 &#10;z" stroke="none" opacity="1.000000" fill="#181D41"/>
    <path d="M700.420044,614.765015 &#10;&#9;C700.468079,614.991516 700.204468,615.443115 699.739197,615.700073 &#10;&#9;C699.727783,615.333740 699.918091,615.161987 700.420044,614.765015 &#10;z" stroke="none" opacity="0.000000" fill="#13173D"/>
    <path d="M648.102295,627.468018 &#10;&#9;C640.757141,628.492371 636.269409,626.315735 633.760254,620.801147 &#10;&#9;C631.303711,615.402100 632.491516,608.472656 636.527832,604.654846 &#10;&#9;C640.479553,600.917236 646.080383,600.218079 650.783264,603.034485 &#10;&#9;C655.561401,605.895813 657.270569,610.352783 657.023499,615.733887 &#10;&#9;C656.758362,621.508179 653.886902,625.361450 648.102295,627.468018 &#10;z" stroke="none" opacity="1.000000" fill="#181D41"/>
    <path d="M376.584167,618.126709 &#10;&#9;C375.409821,606.827820 381.905121,599.526611 390.876465,601.560974 &#10;&#9;C396.972198,602.943359 401.096375,608.615845 400.857513,615.289124 &#10;&#9;C400.613861,622.096802 396.567932,626.809692 390.183777,627.722656 &#10;&#9;C384.094971,628.593323 378.987976,625.111450 376.584167,618.126709 &#10;z" stroke="none" opacity="1.000000" fill="#181D41"/>
    <path d="M295.781982,609.976440 &#10;&#9;C297.787781,610.728149 299.322418,611.471985 300.857056,612.215759 &#10;&#9;C299.341888,612.809998 297.829102,613.915588 296.311218,613.922607 &#10;&#9;C268.343628,614.052002 240.375351,614.082642 212.407608,614.001526 &#10;&#9;C210.569565,613.996216 208.734604,612.925171 206.898209,612.349854 &#10;&#9;C207.054184,611.556091 207.210175,610.762390 207.366165,609.968628 &#10;&#9;C236.681030,609.968628 265.995911,609.968628 295.781982,609.976440 &#10;z" stroke="none" opacity="1.000000" fill="#F32638"/>
    <path d="M432.856689,372.552307 &#10;&#9;C442.229095,371.828644 447.703003,376.769287 448.228546,384.639313 &#10;&#9;C448.649384,390.941467 443.639954,392.699707 440.123474,394.372803 &#10;&#9;C437.937714,395.412811 433.082642,393.142975 430.679260,390.971313 &#10;&#9;C424.724243,385.590424 425.845184,377.481506 432.856689,372.552307 &#10;z" stroke="none" opacity="1.000000" fill="#F4192D"/>
    <path d="M312.956787,432.805786 &#10;&#9;C312.564819,429.952820 312.482361,426.922791 312.524628,423.454285 &#10;&#9;C312.855011,426.220093 313.060699,429.424438 312.956787,432.805786 &#10;z" stroke="none" opacity="1.000000" fill="#F1F2F5"/>
    <path d="M317.820312,419.228088 &#10;&#9;C318.168884,420.710602 318.237671,422.443054 318.210175,424.599792 &#10;&#9;C317.922760,423.175385 317.731659,421.326691 317.820312,419.228088 &#10;z" stroke="none" opacity="1.000000" fill="#F1F2F5"/>
    <path d="M317.990143,433.079834 &#10;&#9;C318.224304,433.148499 318.297058,433.322510 318.276001,433.763367 &#10;&#9;C318.064362,433.748566 317.946533,433.466888 317.990143,433.079834 &#10;z" stroke="none" opacity="1.000000" fill="#F1F2F5"/>
    <path d="M317.294128,467.837006 &#10;&#9;C317.152618,467.501953 317.360687,467.290741 317.847595,467.071411 &#10;&#9;C317.899750,467.297699 317.738861,467.596893 317.294128,467.837006 &#10;z" stroke="none" opacity="1.000000" fill="#E5E8EA"/>
    <path d="M516.003235,418.308197 &#10;&#9;C519.297058,420.710236 521.296265,423.857483 519.531128,427.374512 &#10;&#9;C518.465881,429.497131 515.762329,431.620178 513.475586,432.052124 &#10;&#9;C511.576721,432.410736 508.627136,430.805969 507.195465,429.157104 &#10;&#9;C505.260956,426.929199 505.402283,424.140320 507.809631,421.563812 &#10;&#9;C510.044556,419.171722 512.358643,417.777527 516.003235,418.308197 &#10;z" stroke="none" opacity="1.000000" fill="#F32638"/>
</svg>